<?xml version="1.0" encoding="utf-8"?>
<!-- Generator: Adobe Illustrator 16.0.0, SVG Export Plug-In . SVG Version: 6.00 Build 0)  -->
<!DOCTYPE svg PUBLIC "-//W3C//DTD SVG 1.1//EN" "http://www.w3.org/Graphics/SVG/1.1/DTD/svg11.dtd">
<svg version="1.1" id="Layer_1" xmlns:svg="http://www.w3.org/2000/svg"
	 xmlns="http://www.w3.org/2000/svg" xmlns:xlink="http://www.w3.org/1999/xlink" x="0px" y="0px" width="574.594px"
	 height="1000px" viewBox="-158.222 -275.363 574.594 1000" enable-background="new -158.222 -275.363 574.594 1000"
	 xml:space="preserve">
<path id="path3" d="M393.334-135.693c15.356,26.414,23.038,51.935,23.038,76.568c0,45.035-22.369,78.978-67.109,101.831
	c-16.248,8.385-34.5,14.69-54.754,18.919c-15.878,3.413-30.233,5.12-43.07,5.12c-0.743,0-6.195-0.556-16.361-1.669
	c-10.166-1.113-15.617-1.669-16.358-1.669c-3.117,0.222-6.195,0.593-9.238,1.113c-6.084,1.113-9.125,2.56-9.125,4.34
	c0,3.266,0.778,6.789,2.337,10.572c2.078,5.12,5.119,9.052,9.125,11.797c8.979,6.158,15.063,10.573,18.252,13.243
	c2.373,2.079,4.304,4.305,5.788,6.677c-1.706,0-7.677,1.485-17.919,4.452c-10.312,2.967-16.175,4.452-17.581,4.452
	c1.557,20.773,3.152,35.798,4.782,45.073c1.782,9.943,3.415,24.261,4.897,42.959c0.891,12.094,1.337,21.071,1.337,26.934
	c0,19.66-1.596,36.354-4.784,50.081c-3.487,14.911-12.838,44.329-28.047,88.252l4.008,2.004v0.33l-0.445,0.227
	c-0.596-0.3-1.261-0.448-2.004-0.448c-1.335-0.071-2.113,0.485-2.337,1.67l7.568,3.786v0.333l-0.445,0.224l-7.345-3.45l-0.669,2.894
	c5.192,2.226,8.386,3.339,9.572,3.339l0.222,0.669c-0.147,0.298-0.222,0.702-0.222,1.225c1.113,0.224,0.926,0.332-0.557,0.332
	c-0.596,0-1.632-0.224-3.117-0.667c-1.854-0.594-4.043-1.039-6.566-1.337l-0.443,2.671c0.52,0,1.596,0.557,3.226,1.67
	c1.113,0.741,2.896,0.518,5.343-0.67c0.146,0.074,0.333,0.039,0.557-0.11c0.074,0,0.111,0.443,0.111,1.337c0,0.562,0,0.952,0,1.167
	v0.055c0.073,0.073-0.333,0.11-1.224,0.11c-0.894,0-2.3-0.296-4.23-0.889c-2.076-0.668-3.412-1.113-4.006-1.337l-0.445,1.782
	c-0.37,1.408-0.557,2.559-0.557,3.449c0,1.411,3.784,2.968,11.354,4.676c4.452,0.956,10.405,3.98,17.859,9.07
	c7.46,5.106,15.376,10.857,23.762,17.25c8.387,6.394,5.732,4.557-7.955-5.51c-13.689-10.084-20.461-14.904-20.311-14.468
	c-0.074,0.224-0.557,0.333-1.448,0.333c-5.786-3.193-9.496-4.897-11.129-5.119c-0.741,0.071-1.482,0.037-2.226-0.113
	c-1.408-0.146-3.412-0.702-6.01-1.669l-2.782-0.668l8.016,8.015c-0.073,0.222-0.187,0.371-0.334,0.443
	c-0.446-0.224-1.965-1.78-4.562-4.676c-2.523-2.745-4.043-4.117-4.562-4.117c-0.148-0.147-0.3,0.186-0.446,1
	c2.672,2.968,6.121,6.38,10.35,10.24c3.19,3.043,5.934,6.011,8.233,8.903c1.708,2.226,2.858,5.153,3.452,8.792
	c0.297,1.854,0.595,3.968,0.889,6.343c0.147,0.298,0.63,0.707,1.447,1.227c0.965,0.596,1.521,1.036,1.67,1.337
	c-0.148,0.517-0.557,0.812-1.227,0.889l-1.893-0.889c0.445,0.667,4.043,3.56,10.796,8.679l-0.224-0.557
	c0.892-0.889,1.447-2.449,1.669-4.675l0.446-0.225c0.889,5.341,2.819,8.832,5.786,10.462c4.156,2.3,6.641,4.119,7.46,5.452
	c0.741,1.112,1.521,3.339,2.337,6.677c0.741,3.117,1.779,5.528,3.114,7.234c0.224,0.298,1.076,1.41,2.559,3.339
	c1.41,1.93,2.151,3.043,2.226,3.339c-0.222,0.224-0.482,0.371-0.778,0.445c-2.598-1.78-4.862-5.156-6.79-10.127
	c-1.706-5.343-2.97-8.758-3.782-10.24c-0.743-1.411-3.858-3.896-9.349-7.458c-3.935-2.595-7.197-4.6-9.795-6.01l-1.891-1.445
	c1.334,1.854,2.447,3.114,3.339,3.784v0.443c1.039,0.298,0.814,0.445-0.668,0.445c-1.187,0-9.388-8.014-24.597-24.038l-8.458-3.665
	l-0.445,1.78c1.337,1.557,3.265,3.378,5.788,5.451c2.968,2.45,4.784,4.009,5.454,4.676l0.667,0.446
	c0.146,0.073-0.224,0.11-1.112,0.11c-0.892,0-1.559-0.187-2.004-0.557c-1.037-1.039-1.594-1.596-1.67-1.669
	c2.004,2.449,7.197,8.088,15.581,16.917c9.129,9.571,15.024,15.434,17.695,17.583l-0.445,0.78c-2-0.296-6.008-3.635-12.017-10.017
	l0.111,1.002c-0.074,0.146-0.074,0.298,0,0.446c-0.074,0.071-0.557,0.11-1.447,0.11c-1.335,0-5.565-4.451-12.686-13.354
	c-9.127-11.575-14.06-17.732-14.801-18.474l-0.224,0.557c1.113,0.887,2.856,2.782,5.231,5.675c3.115,3.711,5.082,6.752,5.897,9.125
	c0.074,0.227,0.631,2.041,1.669,5.454c1.261,3.636,2.411,6.157,3.452,7.568c1.408,4.378,6.231,8.643,14.468,12.799
	c4.304,2.151,9.199,4.304,14.689,6.451c7.123,4.451,11.833,10.313,14.138,17.585c0.741,2.226,2.039,6.638,3.895,13.243
	c2.076,7.717,3.113,12.168,3.113,13.355c0.176,5.184,1.141,9.914,2.893,14.189c-1.312-2.02-2.61-4.078-3.895-6.178
	c-1.854-8.16-2.854-12.242-3.004-12.242c-0.968,0-2.152-3.597-3.562-10.794c-1.631-8.164-2.709-12.762-3.227-13.801
	c-2.821-5.267-6.12-9.237-9.905-11.909c-3.486-2.523-11.313-6.566-23.481-12.131c2.819,9.201,4.821,14.431,6.008,15.693
	c1.039,1.113,4.119,3.265,9.236,6.454v0.447l0.224,0.335c0.074,0.071-0.333,0.11-1.227,0.11c-1.63,0-3.188-0.63-4.673-1.893
	c-1.854-1.707-3.339-3.041-4.451-4.006c0.371,5.788-0.372,17.991-2.227,36.612c0,6.456,2.411,14.505,7.234,24.151
	c1.78,3.637,7.086,12.872,15.913,27.712c0.261,0.445,0.521,0.889,0.78,1.337c4.084,7.021,7.61,13.698,10.572,20.032
	c7.791,16.672,11.686,30.953,11.686,42.847c0,0.3,0,0.539,0,0.722c-2.784-10.597-5.938-20.612-9.459-30.049
	c-4.482-12.005-7.561-19.517-9.238-22.536c-1.234-1.935-2.422-3.81-3.561-5.618c-7.545-11.905-12.962-20.787-16.248-26.656
	c-6.605-11.5-9.905-22.145-9.905-31.941c0.445-1.482,0.928-3.598,1.445-6.343c0.89-5.564,1.337-12.837,1.337-21.814
	c0-8.015-0.411-12.799-1.224-14.354c-1.559-1.188-3.082-2.931-4.564-5.232c-1.188-1.856-1.817-3.486-1.894-4.897
	c0.074-1.258,0.037-2.151-0.11-2.669c-0.596-1.632-5.604-5.008-15.024-10.129c3.784,14.468,6.082,26.008,6.899,34.613
	c0.445,4.523,1.339,7.677,2.671,9.459c-0.147,0.298-0.369,0.518-0.667,0.668c-0.668-0.815-1.337-1.854-2.004-3.115
	c-0.815-1.782-1.113-3.265-0.888-4.451l-0.556-1.894c-1.485,13.801-4.787,27.675-9.905,41.623
	c-4.452,12.019-6.678,22.11-6.678,30.271c0,0.224,3.004,9.312,9.014,27.266c7.123,21.222,12.577,38.174,16.361,50.861
	c0.298,1.113,1.482,7.903,3.562,20.365c2.002,12.392,3.08,19.552,3.228,21.479c0.268,2.569,0.472,5.593,0.609,9.068
	c-0.516-3.054-1.057-6.26-1.613-9.625c-3.258-19.598-6.04-33.543-8.347-41.847c-1.709-5.788-3.449-11.757-5.232-17.917
	c-3.636-12.242-5.751-19.067-6.345-20.479c-4.525-11.055-7.643-18.991-9.349-23.814c-2.967-8.386-4.339-13.911-4.117-16.582
	c-3.265,12.168-7.457,26.45-12.576,42.847c-3.484,12.168-5.229,22.219-5.229,30.159l1.669,37.282c0,0.743-0.445,5.38-1.337,13.911
	c-0.965,8.534-1.445,13.727-1.445,15.581c0,0.076,0.259,1.967,0.778,5.678c0.817,4.451,2.114,8.643,3.895,12.574
	c0.483,1.17,2.546,4.938,6.178,11.297c-4.437-2.72-7.57-6.967-9.405-12.744c-2.449-7.495-3.671-13.097-3.671-16.807
	c0-2.002,0.482-7.234,1.445-15.691c0.889-8.458,1.337-13.095,1.337-13.912l-1.67-37.171c0-12.983,3.154-27.267,9.46-42.847
	c6.306-15.581,9.46-30.418,9.46-44.517c0-8.903-0.411-17.62-1.224-26.153c-1.261-13.207-3.378-22.926-6.348-29.157
	c-0.369,5.71-0.741,14.32-1.112,25.818c0,0.445-0.778,6.308-2.337,17.585c-0.815,6.304-0.445,10.684,1.113,13.131
	c-0.074,0.147-0.074,0.332,0,0.557c-0.074,0.224-0.557,0.332-1.446,0.332c-0.889,0-1.337-0.258-1.337-0.78
	c0.225-0.817,0.262-1.595,0.111-2.337c-2.226,6.158-3.856,13.168-4.896,21.033c-1.556,12.168-2.338,29.159-2.338,50.969
	c0,1.854-1.298,7.569-3.896,17.14c-3.115,11.725-6.454,21.741-10.016,30.049c-6.736,23.269-12.172,42.153-16.305,56.647
	c0.276-1.683,0.593-3.5,0.948-5.454c2.447-12.909,3.745-19.993,3.895-21.256c1.037-7.271,4.489-18.956,10.349-35.057
	c6.53-18.03,9.832-27.155,9.906-27.379c1.263-4.896,2.302-16.062,3.117-33.498c0.667-17.436,1.112-27.38,1.334-29.825
	c0.743-7.866,2.078-14.617,4.006-20.256c1.783-4.971,2.672-8.386,2.672-10.24c0-0.743-0.853-6.01-2.559-15.805
	c-1.113-5.488-2.187-8.531-3.226-9.127c-1.187-0.741-2.188-1.854-3.006-3.339c-0.966-1.78-1.445-3.821-1.445-6.121
	c0-0.741,0.371-3.561,1.112-8.457c0.741-4.97,1.113-7.827,1.113-8.571c0-3.857-0.78-8.755-2.339-14.691
	c-0.072,2.004-0.296,3.267-0.668,3.784h-0.332c-0.15-0.224-0.15-1.112,0-2.671c0.146-2.078,0.222-3.376,0.222-3.896l-0.335-3.339
	c-0.296,0.148-1.52,0.411-3.671,0.78c-0.667,0.076-1.076,0.67-1.224,1.782c-0.15,1.929-0.224,11.462-0.224,28.602
	c-0.074,3.562-1.374,8.125-3.896,13.689c-1.26,2.819-2.521,5.414-3.784,7.79l2.339,16.359c0,1.484-0.261,6.269-0.78,14.356
	c0,2.002,1.261,6.862,3.784,14.579c2.521,7.645,3.785,11.725,3.785,12.241c0,4.307-0.928,8.46-2.783,12.466
	c-1.113,2.45-3.154,6.309-6.121,11.575c-0.296,0.071-0.52,0.11-0.667,0.11c-0.298,0-0.446-0.443-0.446-1.337
	c0-0.891,0.407-2.041,1.224-3.449c1.484-2.523,2.263-3.896,2.336-4.119l2.004-4.676c0.445-1.185,0.928-2.967,1.445-5.34
	c0.52-2.374,0.78-4.119,0.78-5.232c0-0.965-2.152-8.531-6.456-22.701c-4.378,9.274-7.975,15.356-10.794,18.25
	c-0.741,0.741-7.418,5.975-20.032,15.693c-0.296,0.224-1.894,1.224-4.787,3.006c-1.854,1.188-3.115,2.3-3.784,3.339
	c-1.039,1.706-1.854,3.896-2.447,6.564c-0.372,1.484-0.817,3.562-1.335,6.234c-0.076,0.369-0.556,2.447-1.447,6.231
	c-0.817,3.635-1.224,5.789-1.224,6.453c0,7.567,1.854,15.285,5.564,23.147c1.93,4.009,4.156,8.015,6.678,12.021
	c-0.372,0.443-0.852,0.704-1.448,0.778c-8.679-11.427-13.02-23.408-13.02-35.946c1.706-8.755,3.115-14.947,4.228-18.586l1.226-4.229
	c-5.269,6.234-8.832,11.166-10.686,14.801c-2.076,4.154-3.115,8.866-3.115,14.135c0,4.009,2.41,11.538,7.234,22.591
	c4.83,11.13,6.833,22.982,6.01,35.559c-0.834,12.46-2.188,24.532-4.062,36.224h-0.502l-0.333-0.999
	c0-1.042,0.667-6.234,2.002-15.581c1.263-9.051,1.893-16.25,1.893-21.591c0-10.831-2.411-21.775-7.234-32.831
	c-4.823-11.053-7.234-18.843-7.234-23.371c0-5.788,1.074-10.868,3.228-15.248c2.149-4.377,6.045-9.57,11.686-15.58
	c3.56-3.711,6.527-9.942,8.903-18.695c1.928-7.121,2.894-13.058,2.894-17.807l-2.337-16.805
	c-1.041,13.354-6.532,25.265-16.472,35.724c-5.045,5.417-10.646,10.314-16.805,14.691c-7.373,8.561-13.866,16.964-19.476,25.208
	c1.339-2.323,3.789-6.201,7.345-11.631c4.747-7.347,8.458-12.946,11.129-16.807c4.006-3.41,7.866-6.788,11.575-10.127
	c7.345-6.604,11.723-11.686,13.131-15.248c1.042-2.45,2.561-7.158,4.565-14.136c2.297-8.162,3.484-13.576,3.56-16.248
	c-1.558,5.341-8.642,12.242-21.256,20.7c-2.671,1.854-13.764,8.646-33.276,20.367c-7.271,5.488-12.131,13.874-14.579,25.15
	c-0.815,3.776-3.206,23.085-7.18,57.926c-1.382,12.123-2.441,21.695-3.171,28.712c-0.147-0.108-0.222-0.606-0.222-1.502
	c2.076-21.739,3.856-42.143,5.341-61.21c0.967-13.727,2.745-24.038,5.343-30.939c4.747-12.983,13.17-21.924,25.262-26.82
	c4.156-1.631,9.645-4.75,16.472-9.35c6.456-4.377,11.762-8.492,15.916-12.353c1.854-1.78,4.117-4.562,6.788-8.347
	c2.967-4.304,4.489-7.308,4.562-9.014c-0.52-15.581-0.817-26.673-0.891-33.276c-0.146-11.203,1.598-21.887,5.232-32.051
	c-1.408,2.151-2.708,4.451-3.895,6.901c-0.296,1.187-0.446,1.039-0.446-0.445c0-0.146,0.409-1.113,1.224-2.894
	c0.891-1.706,1.595-3.08,2.115-4.119l-4.452-2.782c-2.447,1.113-4.562,4.304-6.343,9.573c-1.484,4.226-2.45,8.866-2.895,13.911
	c-0.296,2.967-1.485,6.306-3.561,10.016c-1.113,2.076-2.819,4.896-5.119,8.458l0.667,0.667c-2.967,0.815-6.493,3.154-10.573,7.013
	c-6.01,5.488-9.905,12.055-11.686,19.697c-1.484,10.164-5.454,21.073-11.907,32.72c-4.452,8.012-9.127,14.913-14.024,20.699
	c-0.594-0.071-1.039-0.332-1.335-0.777c0.076-0.446,2.376-3.935,6.899-10.462c5.121-7.421,8.942-14.136,11.464-20.144
	c1.334-4.823,3.71-11.762,7.123-20.814c3.856-10.162,6.751-16.693,8.679-19.587c0.817-1.335,3.117-3.484,6.901-6.453
	c4.599-3.637,7.01-5.564,7.234-5.789c4.897-4.673,7.195-8.308,6.899-10.905c-1.408-5.192-2.115-11.537-2.115-19.032
	c0-1.185,0.185-3.375,0.556-6.564c0.372-3.339,0.781-6.084,1.226-8.233c-0.741,1.113-1.411,1.891-2.004,2.337
	c-0.222,0-0.407-0.111-0.557-0.335c1.632-2.226,2.708-3.596,3.228-4.117c-4.006,2.521-6.567,4.265-7.68,5.23
	c-2.149,1.708-3.486,3.525-4.006,5.453c-0.817,2.821-1.819,6.231-3.006,10.24c-1.334,4.156-3.932,10.646-7.79,19.476
	c-0.518,1.261-1.965,3.413-4.339,6.454c-1.189,1.558-2.598,3.338-4.23,5.343c-1.854,2.669-2.782,4.895-2.782,6.677
	c0.076,2.819,0.037,4.452-0.111,4.896c-1.187,4.153-6.084,11.909-14.691,23.258c0,1.633-2.854,4.713-8.569,9.238
	c-7.271,5.712-11.722,9.533-13.354,11.461c-1.113,1.261-2.487,3.782-4.117,7.567c-1.782,3.784-2.858,6.751-3.228,8.902
	c-0.296,1.929-0.296,9.795,0,23.596c0,1.26-0.596,3.525-1.78,6.79c-1.337,3.708-2.71,6.38-4.119,8.012
	c-3.191,3.711-6.158,6.752-8.903,9.128c-2.819,2.449-5.454,5.082-7.901,7.903c-0.147,0.146-1.447,1.999-3.895,5.564
	c-1.632,2.371-2.893,3.56-3.784,3.56c-0.889,0-1.334-0.071-1.334-0.221c0.074-0.372,0.074-0.596,0-0.67
	c6.825-8.605,13.094-15.805,18.808-21.589c4.523-4.155,7.271-6.864,8.234-8.125c1.113-1.559,1.669-3.932,1.669-7.123
	c-0.222-6.008-0.333-12.168-0.333-18.474c0-5.637,1.669-11.907,5.008-18.809c4.08-8.308,9.46-14.539,16.137-18.693
	c2.967-1.856,7.751-7.421,14.357-16.693c6.008-8.903,9.049-13.355,9.125-13.355c1.039-6.16,2.448-13.505,4.23-22.036
	c3.561-17.435,8.458-31.863,14.689-43.29l2.337-3.896c-4.969,5.637-13.355,14.691-25.151,27.153
	c-9.866,11.725-16.509,22.999-19.921,33.833c-2.226,7.123-5.786,13.95-10.684,20.478c-6.082,8.245-19.845,24.215-41.289,47.907
	c-16.717,18.459-32.65,37.026-47.8,55.702c4.473-6.854,7.755-11.788,9.851-14.803c4.823-6.823,17.25-21.812,37.282-44.96
	c19.291-21.74,30.642-34.573,34.054-38.508c3.487-4.006,7.751-10.272,12.799-18.807c2.001-4.821,3.969-9.499,5.897-14.024
	c3.858-8.975,7.384-15.876,10.572-20.699c1.042-1.631,3.824-4.969,8.347-10.017c4.156-4.673,6.234-7.086,6.234-7.233
	c0-0.146,4.006-4.823,12.018-14.022c7.123-8.088,11.833-13.429,14.135-16.026c-4.452,2.226-7.31,4.306-8.571,6.231
	c-0.889,1.34-2.447,4.009-4.673,8.017c-0.596,0.887-0.891,0.594-0.891-0.891c0-2.968,1.93-6.419,5.789-10.349
	c3.932-4.007,7.64-6.16,11.129-6.454l0.111-0.11c0.889-1.559,0.333-1.894-1.669-1.002c-3.265,1.482-4.934,2.226-5.008,2.226
	c-0.224-0.074-0.372-0.224-0.446-0.446c0.446-0.222,2.634-1.149,6.566-2.782l-1.002-4.006c-1.559,1.409-4.525,2.931-8.903,4.562
	c-6.01,3.858-14.357,12.577-25.04,26.153c-3.634,4.676-6.084,9.088-7.345,13.244c-1.263,4.228-2.226,6.751-2.893,7.566
	c-9.275,10.533-14.209,15.618-14.803,15.248l-16.472,13.131c-5.637,6.234-11.796,13.764-18.474,22.591
	c-2.506,3.256-5.975,6.447-10.405,9.573c0.998-1.776,2.906-4.52,5.732-8.236c4.6-6.008,10.127-12.574,16.583-19.699
	c3.115-3.411,9.645-9.421,19.586-18.028c8.532-7.273,13.727-12.393,15.581-15.359c0.222-0.372,3.671-8.492,10.349-24.371
	c1.411-3.339,4.636-8.201,9.684-14.58c4.747-5.637,7.123-8.532,7.123-8.68c0-1.408,2.371-3.115,7.121-5.119
	c2.598-1.041,6.306-2.523,11.129-4.451l-0.556-3.452l-4.784,1.559c-0.224-0.074-0.372-0.224-0.446-0.445
	c0.15-0.298,1.189-0.741,3.117-1.335c1.334-0.52,2.002-0.892,2.002-1.113c-1.559,0.668-5.304,1.557-11.24,2.67
	c-0.111,0.021-0.222,0.041-0.334,0.054c5.797-1.741,9.544-3.245,11.242-4.506l-0.224-1.556l-6.788,1.779l-0.446-0.11l-0.111-0.335
	c0.372-0.298,0.817-0.518,1.334-0.667c1.854-0.445,3.824-1.002,5.899-1.67l-0.222-2.002c-1.263,0.298-2.411,0.444-3.452,0.444
	l-1.78-0.222l-0.111-0.335c0.15-0.222,1.854-0.482,5.119-0.778h0.111l-0.333-2.561c-4.156,1.041-6.64,1.559-7.458,1.559h-1.113
	c0.074-0.074,0.224-0.111,0.445-0.111l-0.111-0.335c0.15-0.146,2.858-0.812,8.125-2.001l-0.224-4.326
	c-2.152,0.443-4.6,0.853-7.345,1.224l-0.557-0.332c0.076-0.148,2.671-0.741,7.791-1.78v-0.113c-8.903,1.633-14.096,2.45-15.581,2.45
	c-0.892,0-1.335-0.04-1.335-0.111l0.222-0.113l-0.222-0.443c1.485-0.741,7.049-1.632,16.694-2.671l0.111-0.446l-0.111-2.002h-7.347
	l-0.222-0.556c0.446-1.188,0.817-1.856,1.113-2.002c0.296,0.224,0.296,0.78,0,1.669h6.456l-0.113-3.229
	c-9.866,1.782-14.874,2.671-15.024,2.671c-0.889,0-1.298-0.039-1.224-0.113l0.446-0.108l-0.222-0.447
	c0.372-0.072,2.263-0.444,5.675-1.113c3.71-0.665,7.16-1.408,10.349-2.226v-1.557l-5.897-0.113
	c-0.295,0.743-0.446,0.374-0.446-1.112c0-0.89,0.037-1.296,0.111-1.222v0.33c0.224,0,0.78,0.187,1.669,0.557
	c1.261,0.371,2.782,0.596,4.562,0.669c0.15-7.864,0.63-14.354,1.448-19.476c1.409-8.607,5.045-20.702,10.907-36.282
	c3.71-9.645,6.045-16.952,7.01-21.924c1.484-7.421,2.226-17.846,2.226-31.274c0-11.572-0.889-22.184-2.671-31.828
	c-3.41-19.068-6.749-42.96-10.016-71.671c-0.963-7.123-1.854-14.801-2.669-23.039c-1.559-16.322-2.004-28.823-1.337-37.505
	c-1.707-0.372-2.708-0.741-3.004-1.113c-0.372-0.595-0.928-1.001-1.669-1.224c-3.413-1.262-15.766-3.301-37.061-6.121
	c-2.374-0.223-3.634-0.334-3.785-0.334c-2.152-0.52-4.08-1.781-5.786-3.784c0.667-3.192,1.669-5.454,3.004-6.788
	c3.785-3.487,12.242-8.013,25.375-13.578c2.302-0.966,4.156-2.375,5.564-4.229c1.408-1.854,2.115-3.784,2.115-5.787
	c0-2.895-5.417-5.565-16.248-8.013c-1.113-0.223-17.289-3.265-48.524-9.126c-5.71-1.039-12.427-2.967-20.143-5.788
	c-8.755-3.188-13.911-4.97-15.47-5.342c-6.306-1.186-12.725-2.448-19.252-3.783c-13.207-2.522-20.552-4.007-22.037-4.452
	l-7.234-2.782c-4.823-1.781-11.09-5.489-18.809-11.129c-8.531-6.306-14.579-12.093-18.139-17.362
	c-6.084-9.645-9.869-17.695-11.353-24.15l-3.339-11.907c-1.113-5.937-2.226-11.982-3.339-18.141
	c-2.297-12.238-3.449-18.841-3.449-19.805c0-6.306,2.745-16.62,8.236-30.939c4.006-10.61,7.234-18.14,9.681-22.591
	c17.139-25.374,26.192-38.58,27.156-39.62c12.168-13.502,22.184-23.482,30.048-29.937c5.417-4.528,17.25-12.947,35.502-25.263
	c23.964-16.248,53.346-28.49,88.141-36.726c28.194-6.677,56.202-10.016,84.024-10.016c39.473,0,77.236,5.75,113.294,17.25
	c37.319,11.87,68.964,28.751,94.932,50.637C358.685-184.55,378.866-160.623,393.334-135.693z M62.914,412.523
	c-0.67,0.225-3.339,1.445-8.015,3.672c-4.897,2.3-7.345,3.636-7.345,4.006c0,0.298-1.854,1.856-5.564,4.676
	c-4.23,3.267-7.197,7.233-8.903,11.909c-0.222,0.593-1.002,1.893-2.336,3.895c-1.187,1.856-1.894,3.115-2.115,3.785l-0.891,2.002
	c2.967-4.009,8.386-9.869,16.25-17.583c9.57-9.349,15.987-14.283,19.252-14.803L62.914,412.523z M60.799,430.554
	c1.409-0.371,3.3-1.854,5.675-4.451l-0.667-2.226c-0.15,0.146-3.302,3.561-9.46,10.237c-2.745,2.97-4.602,5.232-5.564,6.791
	l-1.669,1.893c3.043-2.597,5.304-4.564,6.789-5.898c2.597-2.3,3.895-4.154,3.895-5.565
	C59.797,431.037,60.131,430.775,60.799,430.554z M62.022,437.343c3.71-3.487,5.826-5.491,6.343-6.011l-0.778-2.002
	c-5.86,3.784-11.981,13.21-18.363,28.269c-6.382,14.911-9.534,27.118-9.459,36.612c0.667-0.222,1.819-1.408,3.449-3.56
	c2.152-2.968,3.896-6.306,5.232-10.017l-1.559,0.111c-0.224,0.224-0.372,0.371-0.446,0.445c-0.148,0.071-0.222-0.335-0.222-1.226
	c0-4.598,1.741-10.573,5.23-17.918c3.117-6.529,5.749-10.721,7.901-12.574c0.965-0.815,1.965-2.3,3.006-4.452l1.556-3.451
	c0.074-0.072,0.854-0.668,2.339-1.78c0.889-0.67,1.334-1.484,1.334-2.45c0-0.889,0.296-1.595,0.892-2.114
	c0.667-0.37,1.037-0.631,1.113-0.778l-0.891-2.226c-1.037,0.741-2.411,1.926-4.117,3.56
	C63.618,436.602,62.763,437.118,62.022,437.343L62.022,437.343z M48.668,479.966c5.269-12.388,7.716-18.735,7.345-19.03l2.561-9.236
	c-2.671,2.371-6.271,11.611-10.797,27.71C48.148,479.409,48.446,479.594,48.668,479.966L48.668,479.966z M178.099,382.697
	c-0.968-0.222-1.523-0.072-1.669,0.447l3.112,0.109C179.099,383.031,178.617,382.845,178.099,382.697z M174.76,395.83l2.782,0.667
	l-3.228-1.669C174.613,395.126,174.76,395.458,174.76,395.83z M173.87,402.396c-0.223,1.856,0.519,3.339,2.226,4.452
	c4.525,2.969,8.162,5.678,10.907,8.125c-0.074,0.222-0.188,0.371-0.335,0.443l-11.351-8.123c1.78,3.265,4.598,7.566,8.458,12.909
	c4.823,6.678,8.605,11.129,11.351,13.354c-2.15-8.012-3.376-12.39-3.669-13.131c-3.639-8.088-9.46-14.17-17.477-18.25
	L173.87,402.396z M172.978,404.957c-0.074-0.224-0.147-0.371-0.224-0.445c-0.074-0.296-0.148-0.224-0.222,0.224L172.978,404.957z
	 M170.42,415.53c0.222,0.146,2.152,0.999,5.786,2.558c2.745,1.188,4.639,2.189,5.678,3.007l2.339,2.002
	c-0.552-0.563-2.295-3.011-5.234-7.348c-3.263-4.971-5.564-7.827-6.898-8.568L170.42,415.53z M166.19,429.552
	c7.716,7.717,12.205,12.388,13.468,14.022l2.002,2.561c0-1.337-0.741-3.486-2.226-6.456c-1.409-2.819-2.374-4.228-2.894-4.228
	c-4.897-5.417-7.864-8.645-8.903-9.684L166.19,429.552z M170.42,427.103c0.667,0.741,2.078,2.3,4.228,4.676l1.446,1.893
	c-1.854-2.743-4.526-5.896-8.013-9.46C168.526,424.95,169.307,425.918,170.42,427.103L170.42,427.103z M149.051,457.931l1.113-6.345
	l-2.339,1.67L149.051,457.931z M153.059,450.586l-2.339,14.468l2.226,11.352c1.112-3.561,1.669-5.935,1.669-7.121
	c0-0.743-0.298-1.63-0.889-2.672c-0.594-1.039-0.892-1.928-0.892-2.669c0-0.967,0.372-3.117,1.113-6.456
	C154.468,455.556,154.172,453.256,153.059,450.586L153.059,450.586z M141.817,457.15c-0.966,0.37-1.445,1.67-1.445,3.896
	c0,0.815,0.741,2.41,2.226,4.784c2.151,3.488,3.597,6.01,4.341,7.568l1.556-11.909l-1.78-7.453l0.227,11.018
	c0,0.813-0.039,1.15-0.113,1c-0.147-0.371-0.259-0.556-0.332-0.556c-0.225-0.072-0.372-0.594-0.446-1.557
	c-0.073-0.815-0.222-3.858-0.445-9.127C144.934,455.632,143.671,456.407,141.817,457.15L141.817,457.15z M121.784,462.271
	c-2.372,1.411-3.782,7.05-4.228,16.916c-0.52,10.609-0.78,15.952-0.78,16.026h-0.557l1.002-32.721c-1.039,0-2.041-0.036-3.004-0.11
	c-2.078-0.074-3.117-0.147-3.117-0.224l0.224,4.008c-0.076,0.222-0.224,0.372-0.446,0.443c-0.15-0.071-0.372-1.596-0.667-4.562
	l-1.894-0.224l-0.667,5.897c0,3.486,1.521,10.461,4.562,20.921c3.71,12.759,5.749,20.032,6.121,21.814
	c2.152-1.261,3.785-4.564,4.897-9.905c1.039-4.676,1.559-9.977,1.559-15.913c0-6.604-0.185-9.829-0.557-9.684l-0.334-0.11
	c0.295-2.002,0.482-6.234,0.556-12.688L121.784,462.271L121.784,462.271z M118.446,467.056c1.113-3.043,1.152-4.564,0.113-4.564
	L118.446,467.056z M139.704,459.933c0.296-1.484-0.073-2.041-1.112-1.669L139.704,459.933z M136.587,459.155l-3.449,1.112
	c0,0.15,0.594,3.376,1.78,9.684c1.113,6.38,1.669,10.164,1.669,11.354c0,0.743-0.369,3.6-1.112,8.57
	c-0.741,4.971-1.113,7.829-1.113,8.57c0,2.078,0.409,3.933,1.224,5.564c0.817,1.557,1.854,2.598,3.117,3.115l0.778,0.111
	c0.226-8.015,1.484-13.799,3.784-17.361c2.152-3.486,3.228-7.495,3.228-12.019c0-0.891-0.667-2.561-2.004-5.008
	c-1.928-3.412-3.523-6.269-4.782-8.57c-0.371,3.114-0.704,4.821-1.002,5.119c-0.298,1.187-0.445,1.041-0.445-0.443
	c0.227-1.485,0.335-2.931,0.335-4.341c0-2.596-0.631-4.378-1.896-5.341L136.587,459.155L136.587,459.155z M151.166,483.75
	l2.671,8.679l0.892-6.453l-2.004-4.341L151.166,483.75z M151.946,478.631l-1.782-9.57c-0.443,3.932-0.67,6.492-0.67,7.679
	c0,1.631,0.261,3.154,0.783,4.562L151.946,478.631z M90.067,456.262c-1.408,2.3-2.598,6.788-3.561,13.466
	c-0.817,4.823-1.261,8.719-1.334,11.686v8.57c1.334-11.427,2.854-19.958,4.562-25.597c1.261-4.451,1.891-6.936,1.891-7.458
	L90.067,456.262L90.067,456.262z M73.819,443.129l-1.445,5.564l4.784-4.228c-0.667,0.222-1.409,0-2.226-0.67
	C74.191,443.278,73.819,443.053,73.819,443.129L73.819,443.129z M72.373,440.014l-1.893-3.784c-3.71,4.598-6.567,8.492-8.569,11.686
	c3.856-2.3,6.082-3.635,6.678-4.006C70.815,442.425,72.075,441.127,72.373,440.014z M77.492,456.262
	c2.893-2.894,4.34-4.49,4.34-4.784c0-1.706-0.556-2.559-1.669-2.559L77.492,456.262L77.492,456.262z M72.149,452.478
	c-0.667,2.078-1.002,4.786-1.002,8.125c0,6.158,0.411,9.235,1.226,9.235v2.615c0.042-1.369,1.043-5.508,3.004-12.407
	c2.152-7.568,4.006-13.099,5.564-16.583C76.564,445.094,73.634,448.102,72.149,452.478L72.149,452.478z M107.43,461.491h-0.891
	l0.445,3.007L107.43,461.491L107.43,461.491z M100.196,460.046c-0.967,3.039-2.265,8.347-3.896,15.913
	c-2.004,8.827-3.006,14.468-3.006,16.918c0,8.829,1.113,15.691,3.339,20.589c1.039,2.447,2.115,4.86,3.228,7.233
	c-0.147,0.298-0.372,0.518-0.667,0.667l-0.892-0.11c-0.222-0.224-0.333-0.815-0.333-1.782c0-0.889-0.669-2.113-2.004-3.672
	c-1.485-1.854-2.487-4.19-3.004-7.01c-0.298-1.484-0.633-5.453-1.002-11.909c-2.004,6.604-3.265,11.129-3.785,13.579
	c-0.963,4.675-1.559,10.312-1.78,16.917l3.339,25.263c-0.074,1.41-1.076,5.788-3.006,13.133c-1.854,6.975-3.523,12.759-5.008,17.36
	l-0.557,1.559c9.945-6.825,17.104-12.17,21.48-16.026c10.388-9.349,15.581-17.582,15.581-24.707c0-2.227-0.853-5.937-2.561-11.129
	c-1.707-4.824-2.559-7.38-2.559-7.678c0-5.047,0.593-8.275,1.78-9.684c1.113-1.337,1.669-2.226,1.669-2.672
	c0-4.304-2.041-13.207-6.121-26.709c-4.156-13.427-6.232-21.773-6.232-25.041l-1.669-0.332c-0.445,11.946-1.113,20.734-2.004,26.377
	c-0.446,2.745-0.852,4.932-1.224,6.564c0,1.263,0.667,2.188,2.004,2.782c2.372,1.039,3.895,1.782,4.562,2.226l0.111,0.445
	c0.965,0.372,0.707,0.557-0.778,0.557c-2.45,0-4.341-0.667-5.677-2.002c-1.039-1.112-1.557-2.449-1.557-4.008
	c1.485-18.25,2.226-28.453,2.226-30.605l0.222-2.893L100.196,460.046L100.196,460.046z M96.411,467.947l2.559-8.236l-1.334-0.443
	L96.411,467.947L96.411,467.947z M91.404,469.393c-2.376,9.944-4.119,22.482-5.232,37.615c3.858-11.944,6.084-20.365,6.677-25.265
	c0.443-7.153,1.037-14.961,1.783-23.425C94.492,459.246,93.419,462.938,91.404,469.393L91.404,469.393z M142.486,506.675
	c-0.445,0.148-0.669,0.67-0.669,1.559c0,2.078,0.369,5.082,1.112,9.015l0.78,1.782c0.446,1.41,0.668,2.559,0.668,3.449v3.339
	c1.112-10.757,1.743-23.112,1.896-37.059c-2.081,2.596-3.229,4.154-3.454,4.676c-0.887,2.298-1.335,6.749-1.335,13.354
	c0.146,0,0.518-0.224,1.113-0.669l0.445,0.224L142.486,506.675z M115.887,520.476c-0.372,2.078-0.557,3.635-0.557,4.676
	c0,0.222,0.333,1.706,1.002,4.451c0.741,2.967,1.372,5.23,1.891,6.788l0.778,2.672l0.224-6.234c0-1.337-0.224-3.782-0.667-7.345
	c-0.446-4.008-0.967-7.16-1.559-9.459C116.629,517.061,116.257,518.546,115.887,520.476L115.887,520.476z M194.569,434.782
	c-2.3-2.374-4.674-4.97-7.121-7.791c0.52,0.741,1.372,2.002,2.559,3.782C191.267,432.334,192.789,433.669,194.569,434.782z
	 M178.656,445.8c-2.598-3.114-4.713-5.451-6.348-7.01l-2.556-2.559l3.449,4.897c2.152,3.039,3.229,4.749,3.229,5.119l-0.227,0.332
	c-1.557-1.856-3.561-4.562-6.008-8.123c-2.226-3.338-3.856-5.564-4.896-6.677l-1.002,2.226c0.146,0.224,0.668,1.074,1.559,2.559
	c1.185,2.08,2.521,4.897,4.006,8.46l14.134,9.014c-0.222-0.967-0.557-1.743-0.998-2.337
	C182.623,450.884,181.177,448.917,178.656,445.8z M159.179,442.351c0,0.074,2.227,5.453,6.678,16.137
	c4.226,10.162,6.678,15.768,7.345,16.805l1.67,2.45c-0.074-3.711-0.557-8.015-1.448-12.91c-1.187-7.123-2.893-12.985-5.119-17.582
	l-1.78-1.227c2.372,4.452,3.637,6.976,3.785,7.567l-0.225,0.222c-1.187-2.372-2.187-4.339-3.004-5.897
	c-1.632-2.967-4.043-5.119-7.233-6.453L159.179,442.351L159.179,442.351z M163.853,438.01c-0.741-0.741-1.298-0.815-1.669-0.222
	c0.52,0.443,1.523,1.814,3.008,4.117l1.224,0.891l-1.559-3.562C164.557,438.788,164.225,438.382,163.853,438.01z M156.841,456.483
	l-0.443-0.889c0.222,2.819,0.594,7.12,1.113,12.909c0.222,5.269,0.037,10.127-0.557,14.578c-0.445,3.191,1.631,6.27,6.232,9.238
	c2.371,1.482,4.969,2.854,7.79,4.117l0.11,0.557c0.968,0.297,0.705,0.445-0.777,0.445c-1.709,0-4.009-0.853-6.904-2.559
	c-3.338-2.002-5.749-4.193-7.233-6.566l-1,7.347c0.074,0.889,0.333,1.78,0.78,2.669c0.445,0.89,0.702,1.482,0.778,1.783
	l-0.998,0.332c0.296,2.002,0.927,8.717,1.892,20.144c1.112,13.209,1.632,21.403,1.559,24.595
	c1.482-6.454,4.969-18.585,10.462-36.392c3.483-11.205,5.229-20.589,5.229-28.157c-9.423-19.958-14.95-32.312-16.583-37.059
	l-1.559,1.782c0.372,1.482,1.746,4.972,4.121,10.46l-0.226,0.224c0.672,2.154-0.594-0.259-3.78-7.233
	c0,0.967-0.115,2.637-0.335,5.008c-0.004,0.998,0.106,1.891,0.331,2.667H156.841z M158.956,459.711
	c1.633,1.113,2.452,3.154,2.452,6.121l-0.335,0.225c-0.146,0.297-0.369,0.039-0.667-0.781c-0.892-2.521-1.706-4.636-2.447-6.342
	l-0.168-0.335C158.122,459.037,158.51,459.409,158.956,459.711z M155.617,477.183v-2.001c-0.517,1.706-1.149,3.338-1.891,4.896
	l1.335,3.561C155.285,482.23,155.469,480.078,155.617,477.183L155.617,477.183z M192.122,470.619
	c-0.968-2.746-2.005-5.38-3.117-7.904c-1.113-2.449-1.815-3.747-2.11-3.895l3.779,9.572L192.122,470.619z"/>
</svg>
