<?xml version="1.0" encoding="utf-8"?>
<!-- Generator: Adobe Illustrator 16.0.0, SVG Export Plug-In . SVG Version: 6.00 Build 0)  -->
<!DOCTYPE svg PUBLIC "-//W3C//DTD SVG 1.1//EN" "http://www.w3.org/Graphics/SVG/1.1/DTD/svg11.dtd">
<svg version="1.1" id="svg2" xmlns:svg="http://www.w3.org/2000/svg"
	 xmlns="http://www.w3.org/2000/svg" xmlns:xlink="http://www.w3.org/1999/xlink" x="0px" y="0px" width="505.378px"
	 height="1000.001px" viewBox="96.372 11.649 505.378 1000.001" enable-background="new 96.372 11.649 505.378 1000.001"
	 xml:space="preserve">
<path id="path3103" fill="#060606" d="M405.523,1005.936c-0.418-7.13-1.891-18.486-3.164-24.433
	c-1.547-7.199-1.311-20.985,0.509-29.754c1.698-8.2,3.819-22.711,6.584-45.081c1.229-9.943,2.483-17.456,3.405-20.389
	c0.804-2.552,1.77-7.413,2.147-10.808c0.378-3.391,1.464-9.221,2.413-12.958c0.948-3.733,1.905-8.227,2.124-9.98
	c0.382-3.04,0.312-3.253-1.469-4.52l-1.866-1.33l0.02-9.686c0.023-11.77,0.627-16.732,3.028-24.979
	c1.111-3.813,2.102-9.144,2.491-13.423c1.094-11.955,2.486-20.406,4.395-26.652c1.003-3.284,2.261-9.121,2.79-12.97
	c0.533-3.848,1.915-10.472,3.069-14.717c4.445-16.354,5.226-21.727,5.604-38.594c0.317-14.118,0.479-15.887,1.9-20.656
	c1.358-4.562,1.501-5.88,1.125-10.486c-0.376-4.641-0.673-5.608-2.506-8.157c-1.143-1.593-3.346-5.863-4.896-9.496l-2.82-6.604
	l0.947-3.485c0.522-1.916,1.118-6.682,1.323-10.587c0.336-6.393,0.574-7.5,2.396-11.115c1.108-2.207,3.294-5.645,4.853-7.639
	l2.835-3.625v-37.317c0-31.988-0.142-37.938-0.988-41.662c-1.213-5.328-6.909-17.584-9.121-19.627l-1.623-1.497l-1.544,1.45
	c-1.981,1.859-1.996,4.302-0.035,6.142c2.103,1.977,3.221,4.585,4.081,9.525c0.916,5.261-0.013,14.764-2.054,21.076
	c-1.299,4.018-1.562,4.357-4.771,6.247c-2.281,1.342-6.126,4.977-11.729,11.081c-5.408,5.895-9.85,10.11-12.658,12.015
	c-2.379,1.614-5.471,4.218-6.867,5.785c-2.088,2.341-2.92,2.85-4.661,2.85c-2.813,0-3.604-0.929-3.604-4.232
	c0-3.203,1.801-5.988,5.254-8.122c1.207-0.745,3.164-2.625,4.349-4.18c1.185-1.55,3.366-3.676,4.851-4.722
	c5.491-3.877,17.648-14.885,17.652-15.986c0.002-0.616,1.38-2.57,3.059-4.347c3.654-3.864,4.161-5.054,4.375-10.285
	c0.275-6.727,0.053-8.24-1.513-10.188l-1.484-1.853l-1.6,1.496c-0.879,0.823-1.599,2.023-1.599,2.666
	c0,0.644-0.326,1.775-0.726,2.518s-0.892,2.154-1.094,3.143s-0.917,2.098-1.589,2.469c-0.671,0.373-1.957,1.164-2.86,1.759
	c-2.267,1.493-11.301,1.518-14.397,0.038c-1.2-0.571-2.182-1.251-2.182-1.509s-1.557-1.733-3.453-3.282
	c-3.006-2.447-3.824-2.812-6.33-2.803c-1.582,0.006-4.545,0.412-6.58,0.903c-8.024,1.937-14.631,0.617-17.632-3.525
	c-1.012-1.396-1.936-3.653-2.175-5.312c-0.396-2.761-1.691-5.044-2.856-5.044c-0.303,0-1.232,0.682-2.065,1.516
	c-1.341,1.339-1.516,2.051-1.516,6.167c0,2.558-0.334,5.899-0.743,7.427c-0.586,2.194-0.576,3.596,0.045,6.649
	c0.882,4.328,2.423,7.268,6.828,13.014c1.653,2.155,3.759,5.426,4.68,7.269c0.922,1.843,2.71,4.736,3.974,6.436
	s2.81,4.438,3.437,6.087c0.626,1.649,2.28,4.466,3.672,6.26c3.068,3.955,5.582,9.13,5.072,10.455
	c-0.229,0.594-1.113,0.975-2.26,0.975c-2.937,0-6.908-4.151-13.287-13.896c-3.114-4.754-6.888-10.082-8.387-11.841
	c-1.498-1.756-4.251-5.925-6.117-9.263c-1.867-3.337-4.401-7.18-5.632-8.538s-2.823-3.623-3.536-5.033
	c-1.245-2.461-1.261-2.754-0.389-7.312c0.5-2.609,0.909-5.479,0.909-6.378c0-0.897,1.04-4.259,2.31-7.467
	c2.301-5.814,4.324-8.422,10.916-14.08c1.165-1,1.594-1.965,1.594-3.592c0-5.472-2.44-5.892-10.317-1.771
	c-6.899,3.608-9.004,5.643-15.266,14.759c-5.996,8.729-9.559,15.188-13.961,25.307c-1.771,4.067-4.551,9.369-6.179,11.782
	c-2.134,3.162-3.168,5.449-3.711,8.211c-0.511,2.601-1.508,4.906-3.109,7.191c-3.79,5.407-3.77,5.329-2.404,9.295
	c0.74,2.148,1.224,5.176,1.224,7.658c0,3.834-0.133,4.23-2.007,5.989c-1.104,1.037-3.257,2.737-4.786,3.775
	c-1.529,1.04-4.585,3.734-6.793,5.987c-2.369,2.42-5.831,5.106-8.446,6.557c-4.181,2.314-4.646,2.8-8.148,8.468
	c-3.177,5.141-3.908,6.901-5.044,12.144c-0.73,3.369-2.155,8.368-3.165,11.104c-1.01,2.736-4.596,12.928-7.968,22.646l-6.132,17.672
	v6.146c0,5.956-0.096,6.384-3.116,13.822c-3.6,8.872-8.661,24.643-10.817,33.709c-0.82,3.449-2.374,8.59-3.451,11.425
	c-1.867,4.91-1.967,5.62-2.117,15.034c-0.086,5.435-0.389,10.74-0.671,11.794c-0.283,1.053-2.202,3.768-4.264,6.036
	c-4.497,4.939-6.168,9.098-7.112,17.68c-1.261,11.486-7.983,34.055-21.242,71.321c-4.7,13.21-8.108,23.962-9.688,30.566
	c-2.881,12.042-4.947,18.307-9.845,29.852c-1.994,4.7-4.867,12.619-6.384,17.599c-1.517,4.98-3.472,11.139-4.345,13.686
	c-2.68,7.816-4.015,13.903-4.019,18.318c-0.002,2.32-0.184,6.11-0.402,8.423c-0.389,4.121-0.444,4.228-2.796,5.427
	c-1.318,0.674-2.667,1.059-2.994,0.854c-0.999-0.617-0.667-10.411,0.646-19.017c1.69-11.076,6.18-27.775,10.304-38.318
	c1.877-4.799,4.612-12.2,6.077-16.444c1.465-4.246,3.917-10.41,5.449-13.698c4.395-9.434,11.943-34.319,15.818-52.143
	c1.041-4.796,2.85-11.554,4.017-15.021c2.2-6.533,5.525-24.498,7.436-40.174c0.559-4.585,1.827-12.019,2.818-16.515
	c1.333-6.056,1.804-9.824,1.811-14.513c0.015-9.533,3.765-34.059,7.108-46.476c0.823-3.055,2.189-9.529,3.036-14.385
	c0.846-4.854,1.692-9.072,1.88-9.377c0.186-0.299,2.141-1.87,4.341-3.486c2.203-1.616,4.003-3.143,4.003-3.392
	c0-0.247,0.712-1.297,1.582-2.331c4.951-5.884,9.762-24.722,14.166-55.467c0.88-6.148,1.408-7.803,4.72-14.778
	c2.05-4.319,4.52-10.094,5.489-12.837c0.968-2.739,3.424-8.733,5.46-13.318c3.996-9.001,11.002-19.464,19.602-29.274
	c3.119-3.56,5.786-7.611,9.188-13.959c8.144-15.199,16.288-29.417,17.356-30.304c0.561-0.465,2.69-3.355,4.732-6.418
	c2.042-3.063,6.339-9.109,9.551-13.434c4.869-6.558,6.631-8.418,10.604-11.202c4.72-3.309,16.113-14.742,16.113-16.174
	c0-1.258-8.25-1.624-19.739-0.873l-10.784,0.706l-11.137,3.927c-6.125,2.159-14.61,5.496-18.856,7.415
	c-4.246,1.917-15.361,6.545-24.701,10.28c-11.459,4.584-18.955,7.984-23.049,10.454c-3.337,2.015-8.479,4.583-11.425,5.709
	c-5.117,1.956-5.433,2.189-7.073,5.199c-1.323,2.428-2.877,3.964-6.769,6.691c-5.231,3.667-7.428,4.501-22.552,8.57
	c-8.015,2.157-13.47,4.689-14.053,6.522c-0.239,0.756-0.617,3.496-0.841,6.09c-0.382,4.438-0.584,4.946-3.428,8.643
	c-1.664,2.162-4.293,4.797-5.845,5.854c-4.136,2.818-9.291,7.796-16.382,15.818c-11.137,12.598-14.999,17.579-17.539,22.63
	c-1.973,3.923-3.387,5.746-6.82,8.789c-2.382,2.111-6.186,4.869-8.452,6.126l-4.121,2.286l-7.116,14.112
	c-5.13,10.174-6.904,14.246-6.356,14.584c0.417,0.26,2.357,0.64,4.311,0.842c4.126,0.432,9.513,2.553,9.161,3.607
	c-0.133,0.4-1.94,1.8-4.017,3.113l-3.774,2.387l-5.105-0.64c-2.808-0.354-5.332-0.988-5.609-1.415s-1.189-2.918-2.026-5.534
	l-1.523-4.76l3.751-7.899c2.063-4.345,6.076-14.294,8.917-22.104l5.165-14.201l3.92-3.706c2.156-2.039,9.042-8.578,15.303-14.533
	c6.259-5.954,14.022-12.933,17.249-15.505c3.227-2.573,7.186-6.097,8.8-7.825l2.934-3.148v-4.985c0-4.529,0.263-5.618,2.876-11.914
	c1.581-3.81,3.179-7.321,3.55-7.803c0.372-0.48,3.871-3.484,7.776-6.673c6.542-5.341,8.375-6.428,23.229-13.763
	c8.869-4.379,20.161-9.479,25.092-11.33c4.932-1.851,11.685-4.935,15.008-6.854c12.751-7.36,26.043-12.375,53.384-20.138
	c2.208-0.628,7.104-2.512,10.879-4.19c3.898-1.731,10.679-4.032,15.69-5.324c4.854-1.25,10.102-2.769,11.661-3.374
	c1.559-0.604,5.106-1.283,7.882-1.506c2.775-0.223,6.215-0.818,7.643-1.322c1.427-0.505,4.333-0.916,6.456-0.916
	c4.744,0,5.285-0.547,5.704-5.769l0.315-3.931l-6.696-7.655c-3.683-4.21-13.522-14.742-21.865-23.402
	c-8.342-8.661-16.454-17.415-18.024-19.452c-1.571-2.038-4.165-4.956-5.766-6.482c-5.026-4.801-13.978-15.526-13.656-16.364
	c0.17-0.44,0.64-2.492,1.047-4.56c0.407-2.065,1.08-4.04,1.496-4.385c0.455-0.377,2.282-0.467,4.583-0.228l3.827,0.398l10.618,12.38
	c5.841,6.809,13.538,16.021,17.106,20.47c4.474,5.579,9.361,10.688,15.75,16.464c5.094,4.604,11.442,10.775,14.107,13.711
	s5.205,5.339,5.646,5.339c1.045,0,1.552-1.398,1.552-4.28c0-1.952-0.592-3.008-3.686-6.587c-2.027-2.345-5.563-7.042-7.859-10.437
	c-2.296-3.398-6.143-8.678-8.548-11.733c-4.689-5.957-8.313-11.082-8.313-11.75c0-0.228-3.018-4.901-6.705-10.387
	c-6.393-9.51-6.922-10.553-11.352-22.325c-4.743-12.606-9.138-26.669-13.085-41.854c-1.216-4.678-3.599-12.136-5.295-16.573
	c-2.816-7.366-3.084-8.516-3.084-13.26c0-5.075-0.069-5.319-3.072-10.725c-2.76-4.969-3.229-6.401-4.623-14.093
	c-3.538-19.525-3.701-20.08-8.306-28.224c-6.683-11.816-9.542-19.126-11.739-30.014c-1.047-5.184-1.903-10.646-1.903-12.135
	c0-1.49-0.695-5.786-1.543-9.547c-2.222-9.844-2.134-17.655,0.314-27.903c1.023-4.277,2.431-11.74,3.13-16.585
	c1.2-8.319,5.191-24.815,7.125-29.451c0.486-1.165,1.444-5.333,2.13-9.264c2.46-14.099,4.427-23.367,7.101-33.47
	c1.495-5.648,3.304-13.948,4.019-18.446c1.735-10.892,5.316-19.663,9.272-22.711c1.445-1.113,2.841-1.808,3.103-1.543
	c0.261,0.264,0.657,2.564,0.879,5.111c0.401,4.601,0.383,4.679-2.709,11.5c-2.491,5.495-3.438,8.582-4.731,15.438
	c-0.89,4.713-2.419,11.209-3.4,14.435c-1.859,6.125-4.238,20.233-7.411,43.957c-1.796,13.426-2,14.318-4.945,21.479l-3.072,7.472
	v8.241c0,5.928-0.26,8.863-0.927,10.458c-1.695,4.058-1.338,4.946,3.366,8.366c3.681,2.678,4.348,3.453,4.685,5.453
	c0.217,1.282,1.308,6.5,2.424,11.594c1.678,7.661,2.666,10.598,5.711,16.981c2.026,4.245,5.239,10.272,7.143,13.393
	c3.249,5.328,3.558,6.186,5.067,14.092c1.538,8.058,1.578,8.792,0.924,17.175c-0.66,8.478-0.631,8.97,0.903,15.463
	c1.415,5.987,2.109,7.579,6.467,14.821c4.653,7.733,4.957,8.469,6.481,15.688c1.308,6.196,1.599,9.242,1.599,16.731
	c0,7.735,0.289,10.585,1.862,18.362c2.615,12.936,3.875,17.204,7.808,26.432c4.575,10.736,5.622,12.723,6.707,12.723
	c1.182,0,1.159,0.229,1.193-12.042c0.031-10.784,1.03-16.831,3.585-21.699c1.151-2.193,3.53-9.554,3.591-11.11
	c0.024-0.636,0.511-1.867,1.08-2.738c0.57-0.871,1.667-2.539,2.438-3.705s1.577-2.816,1.79-3.665
	c0.213-0.851,1.277-2.542,2.364-3.76c1.088-1.219,2.714-3.772,3.614-5.676c0.9-1.904,1.908-3.629,2.239-3.833
	c0.861-0.532,4.955-6.802,4.955-7.59c0-0.364,0.657-1.446,1.458-2.407c2.043-2.442,4.1-6.667,4.1-8.421
	c0-2.524,1.334-5.56,3.719-8.453c1.261-1.529,2.881-3.946,3.604-5.371c0.761-1.502,2.484-3.397,4.097-4.506
	c1.531-1.053,2.783-2.219,2.783-2.592c0-1.289,20.223-20.74,25.076-24.12c2.682-1.867,7.932-4.817,11.666-6.555
	c3.736-1.738,7.209-3.443,7.72-3.786c0.51-0.345,1.898-1.075,3.086-1.624c1.19-0.549,2.646-1.242,3.234-1.54
	c0.589-0.299,1.571-0.543,2.179-0.543c0.606,0,1.792-0.486,2.632-1.081c1.142-0.809,3.864-1.271,10.791-1.829
	c10.114-0.817,15.782-1.557,20.069-2.618c6.126-1.517,7.562-1.485,10.069,0.228c1.294,0.882,3.409,2.145,4.702,2.805
	c3.044,1.553,11.754,10.855,15.348,16.389c1.542,2.377,3.723,5.353,4.843,6.61c1.119,1.259,2.577,3.343,3.24,4.631
	c0.663,1.29,2.075,3.17,3.14,4.181c1.95,1.853,3.736,4.82,3.736,6.205c0,1.163,2.275,8.004,3.357,10.095
	c0.53,1.03,0.976,2.789,0.985,3.91c0.014,1.121,0.429,2.576,0.927,3.236c0.5,0.66,0.907,1.994,0.907,2.965
	c0,0.971,0.412,2.563,0.916,3.539c3.418,6.605,3.533,15.255,0.583,43.552c-0.212,2.037-0.661,4.04-0.992,4.447
	c-0.766,0.935-2.56,9.453-2.089,9.922c0.191,0.19,0.494,0.202,0.671,0.023c0.798-0.799,6-16.62,7.125-21.66
	c1.986-8.921,6.053-15.098,11.233-17.069c1.087-0.415,1.696-1.098,1.696-1.91c0-0.695,1.084-2.995,2.406-5.109
	c2.538-4.051,6.277-12.47,9.66-21.752c3.611-9.902,9.309-22.559,16.26-36.125l6.804-13.277l0.674-7.84
	c0.648-7.574,0.784-8.079,3.952-14.821c3.537-7.521,7.464-14.081,8.43-14.081c1.161,0,0.574-2.056-1.828-6.408
	c-2.194-3.976-2.552-5.274-3.711-13.53c-1.067-7.621-1.18-10.022-0.664-14.512c0.339-2.958,0.619-9.825,0.621-15.261
	c0.004-8.148-0.312-11.719-1.81-20.378c-2.997-17.362-3.849-25.189-3.409-31.422c0.385-5.467,0.326-5.825-2.048-12.422
	c-2.092-5.816-2.507-7.814-2.871-13.895c-0.526-8.797-1.76-16.478-3.849-23.971c-0.927-3.314-1.376-5.986-1.063-6.299
	c0.299-0.298,1.687-0.725,3.078-0.947c2.996-0.479,2.748-0.903,4.834,8.275c2.08,9.16,3.234,15.784,4.352,24.965
	c0.526,4.339,2.064,14.115,3.418,21.725c1.354,7.609,2.462,15.749,2.462,18.088c0,2.613,0.826,7.926,2.146,13.783
	c2.82,12.525,6.224,31.801,7.791,44.113c0.92,7.228,1.228,12.863,1.141,20.995c-0.063,6.114,0.064,11.55,0.289,12.079
	c0.23,0.542-0.799,4.092-2.35,8.105c-1.519,3.929-3.5,9.886-4.405,13.24c-1.646,6.106-5.296,13.706-10.49,21.846
	c-1.408,2.21-3.347,6.378-4.304,9.264c-0.957,2.887-2.672,7.426-3.809,10.091c-1.138,2.665-2.614,6.991-3.283,9.613
	c-0.672,2.622-1.614,5.722-2.099,6.888c-0.483,1.166-1.066,4.343-1.297,7.061c-0.738,8.759-2.828,13.804-9.18,22.153
	c-4.962,6.519-5.564,7.59-5.441,9.66c0.188,3.196-1.274,6.567-6.227,14.36c-2.326,3.659-5.953,10.188-8.062,14.512
	c-18.345,37.585-31.977,58.883-43.215,67.517c-2.794,2.146-13.417,12.066-23.604,22.046c-10.189,9.979-19.499,18.604-20.688,19.17
	c-2.152,1.021-2.161,1.042-2.345,5.594c-0.101,2.513,0.049,4.801,0.333,5.085c0.283,0.283,2.406-0.023,4.717-0.686
	c2.312-0.66,7.997-1.756,12.637-2.436c6.205-0.908,10.212-1.904,15.173-3.768c6.604-2.482,22.652-7.369,28.149-8.57
	c1.527-0.333,7.733-1.322,13.788-2.196c8.826-1.273,12.042-2.017,16.218-3.746c2.863-1.186,5.6-2.154,6.073-2.154
	c1.566,0,5.913,6.132,5.913,8.34c0,1.101,0.164,2.83,0.366,3.838c0.34,1.693,0.065,2.047-3.617,4.677
	c-5.645,4.029-19.409,7.956-33.833,9.654c-14.822,1.745-61.493,10.854-64.167,12.524c-1.306,0.814-1.497,1.222-2.181,4.623
	c-0.366,1.825-0.214,2.066,2.047,3.221c6.151,3.139,19.971,16.395,32.47,31.15c5.479,6.464,7.812,9.902,12.585,18.526
	c4.307,7.778,7.57,12.716,12.312,18.614c5.631,7.007,6.984,9.186,10.662,17.116c3.619,7.813,5.21,10.39,11.344,18.354
	c3.923,5.096,8.703,11.981,10.622,15.304c4.161,7.199,8.301,17.28,8.301,20.206c0,1.155,1.123,7.134,2.497,13.283
	c2.408,10.786,2.473,11.357,1.823,16.257c-0.37,2.791-1.772,8.762-3.114,13.269c-2.308,7.747-2.441,8.64-2.441,16.366
	c0.003,11.618,0.971,20.419,3.378,30.709c1.32,5.649,2.347,12.136,2.778,17.572c0.712,8.984,2.275,17.771,5.928,33.324
	c1.988,8.468,2.105,9.493,1.451,12.659c-0.392,1.896-1.648,5.308-2.792,7.581c-2.586,5.143-4.203,12.303-5.488,24.271
	c-0.546,5.095-1.663,12.876-2.483,17.29c-0.821,4.415-1.923,12.891-2.446,18.836c-1.905,21.678-4.816,37.06-8.803,46.529
	c-1.699,4.035-7.074,10.28-8.849,10.28c-0.554,0-1.529-0.577-2.17-1.285c-1.146-1.264-1.142-1.326,0.24-3.551
	c5.501-8.864,9.732-21.086,10.295-29.745c0.371-5.677,1.576-16.264,6.166-54.082c1.198-9.875,2.18-20.79,2.18-24.255
	c0-5.729-0.163-6.621-1.798-9.86c-1.545-3.061-1.898-4.735-2.495-11.87c-0.383-4.568-1.251-11.921-1.925-16.334
	c-1.909-12.464-2.406-18.882-3.072-39.83c-0.339-10.699-0.875-24.04-1.189-29.641c-0.314-5.604-0.587-16.493-0.604-24.197
	l-0.033-14.009l-4.475-5.729c-2.832-3.624-6.145-6.987-9.013-9.149c-4.479-3.376-4.565-3.499-7.231-9.974
	c-1.482-3.604-3.836-10.679-5.228-15.719c-3.145-11.394-6.114-17.023-22.949-43.495c-14.681-23.077-20.693-31.271-29.332-39.964
	c-6.11-6.148-13.977-11.907-16.262-11.907c-0.396,0,0.531,2.312,2.06,5.14c3.082,5.699,5.183,11.326,9.352,25.044l2.804,9.222
	l-0.651,9.273c-0.578,8.25-0.511,10.317,0.618,18.682c1.695,12.582,1.637,22.753-0.222,37.002
	c-2.495,19.161-2.577,22.646-0.723,30.679c1.241,5.38,1.594,8.538,1.594,14.321c0,4.278,0.263,7.578,0.617,7.798
	c0.34,0.21,0.62,1.547,0.622,2.971c0.002,1.423,0.29,3.62,0.641,4.88c0.508,1.832,0.323,3.942-0.925,10.498
	c-0.855,4.514-2.271,14.545-3.144,22.295l-1.583,14.088l-3.364,7.352c-1.849,4.041-3.361,8.221-3.361,9.287
	c0,3.296-2.419,20.659-4.641,33.302c-3.574,20.331-4.49,30.997-4.86,56.503l-0.331,22.85l-2.419,7.104
	c-1.333,3.905-3.668,9.763-5.188,13.016c-1.523,3.256-3.263,7.423-3.864,9.266c-0.604,1.841-2.277,6.541-3.721,10.445
	c-2.406,6.518-2.659,7.765-3.055,15.132c-0.347,6.442-0.843,9.429-2.518,15.129c-1.197,4.076-2.501,10.522-3.057,15.13
	c-0.533,4.416-1.5,10.946-2.146,14.514c-0.646,3.566-1.357,9.264-1.583,12.658c-0.226,3.396-0.935,9.649-1.575,13.895
	c-1.404,9.293-1.503,19.334-0.271,27.925c1.479,10.303,2.229,22.217,1.458,23.146c-0.367,0.44-1.434,0.803-2.369,0.803h-1.703
	L405.523,1005.936L405.523,1005.936z M512.966,354.758c0.212-0.593,2.703-6.034,5.538-12.09c2.835-6.055,5.156-11.256,5.156-11.559
	c0-1.208-1.789,0.238-2.545,2.06c-0.442,1.069-1.818,2.989-3.061,4.267c-1.239,1.279-3.378,4.622-4.749,7.432
	c-2.146,4.393-2.449,5.516-2.183,8.04C511.438,355.886,512.27,356.721,512.966,354.758L512.966,354.758z"/>
</svg>
