<?xml version="1.0" encoding="utf-8"?>
<!-- Generator: Adobe Illustrator 16.0.0, SVG Export Plug-In . SVG Version: 6.00 Build 0)  -->
<!DOCTYPE svg PUBLIC "-//W3C//DTD SVG 1.1//EN" "http://www.w3.org/Graphics/SVG/1.1/DTD/svg11.dtd">
<svg version="1.1" id="Layer_1" xmlns:svg="http://www.w3.org/2000/svg"
	 xmlns="http://www.w3.org/2000/svg" xmlns:xlink="http://www.w3.org/1999/xlink" x="0px" y="0px" width="644.781px"
	 height="1000px" viewBox="360.11 558.5 644.781 1000" enable-background="new 360.11 558.5 644.781 1000" xml:space="preserve">
<path id="path3" d="M1004.891,1107.39c-5.067-1.073-9.466-2.815-13.227-5.196c-6.652,1.654-13.394-0.795-19.367,0
	c-3.791,0.505-7.314,3.482-10.864,4.252c-8.17,1.771-15.646,3.042-21.729,6.141c-9.19,5.506-17.853,11.39-26.452,18.422
	c-9.941,8.13-20.651,15.753-33.065,20.784c-2.27,0.92-4.559,2.23-6.613,2.835c-5.803,1.706-13.613,1.132-18.895,3.778
	c-4.78,2.396-8.523,6.45-13.227,8.503c-4.938,2.155-9.502,3.095-15.588,3.779c-5.104,0.573-11.701,4.585-17.95,4.724
	c-16.274,0.36-33.358-3.436-42.985-14.171c-2.052-5.528-4.455-9.959-3.778-16.061c0.837-7.56,8.189-11.668,8.975-19.84
	c-18.664-3.391-9.397,25.242-25.035,26.452c-1.572,17.834-3.662,35.384-6.141,50.071c2.95,4.135,7.09,7.08,10.864,10.392
	c-0.66,1.86,0.228,5.267-1.417,6.142c-4.083-2.216-6.03-6.567-10.393-8.503c-4.269,19.438-9.229,42.798-14.644,63.77
	c-1.35,5.229-2.005,11.791-3.778,15.115c-0.927,1.736-3.105,2.226-4.252,3.779c-2.491,3.379-3.974,8.602-6.141,12.754
	c-3.076,5.896-5.474,11.917-10.392,15.588c-0.117,3.061,3.712,4.325,2.361,7.086c20.794,14.104,41.65,32.555,67.076,44.402
	c6.816,3.177,13.158,6.565,21.729,8.03c7.927,1.354,9.101-0.9,15.116-5.669c2.314-1.835,4.798-4.645,7.086-6.141
	c0.842-0.551,2.109-0.08,2.834-0.472c2.027-1.097,2.864-3.455,4.724-4.725c2.947-2.012,5.979-3.033,8.502-4.724
	c2.383-1.595,4.332-3.473,7.086-5.195c0.807-5.456,2.74-8.542,2.362-14.171c2.963-1.876,5.819-2.732,8.502-5.669
	c0.505-5.239-1.588-7.602-3.307-9.447c3.436-6.466,7.442-14.692-0.944-19.367c0.714-7.277-3.955-16.012-4.724-25.508
	c-0.277-3.42,0.614-7.114,0.473-10.864c-0.281-7.411-3.135-14.953,0.944-20.312c3.763-1.058,4.214-4.606,8.503-4.251
	c2.663,0.22,5.168,5.847,4.724,10.392c-0.565,5.777-7.761,9.591-9.447,17.478c-2.112,9.875-0.738,26.642,6.612,29.287
	c0.313,1.733,0.503,3.592,0.945,5.195c4.178-1.114,8.038-6.377,11.337-9.919c7.603-0.327,11.733-9.58,21.256-8.03
	c1.586-2.099,7.002-1.91,9.447-4.252c6.309-6.04,11.949-9.5,24.563-6.613c0.665,0.152,2.087,1.175,2.834,1.418
	c14.784,4.798-2.217,18.537-11.809,16.061c-1.27-0.326-0.913,0.977-1.417,1.417c-9.837-3.072-19.001-5.748-28.343-3.307
	c-10.514,2.747-17.47,11.247-23.146,18.422c-0.023,1.846,3.074,2.249,1.417,4.251c-1.154,1.162-2.048-0.349-3.779,0
	c-2.551,2.302-2.985,8.806-1.889,13.227c2.459,2.264,6.164,3.283,9.447,4.724c1.033-0.856,0.08-3.698,0.944-4.724
	c2.217-0.238,3.23-0.717,4.251,0.945c9.587-13.938,27.632-20.143,45.348-17.479c3.845-3.555,6.956-7.844,12.754-9.447
	c1.042,0.533,0.733,2.416,1.89,2.835c13.811-0.438,25.933,4.507,28.814,16.532c2.124,3.553,6.902,4.318,6.612,8.976
	c-0.517,8.326-15.246,10.593-20.784,15.115c-10,2.586-21.847-1.753-27.396-8.975c-6.807,1.539-14.57,2.12-17.006,8.03
	c-1.074,0.342-2.413,0.421-3.307,0.944c-0.756,4.733,9.799,9.376,17.006,9.447c5.537,0.055,10.492-3.611,15.588-2.834
	c3.732,0.57,8.765,4.722,11.809,7.558c6.585,6.135,9.261,11.716,10.393,23.146c-0.459,0.013-0.367,0.578-0.473,0.944
	c-2.144,1.928-5.231,2.682-10.392,2.362c-10.828-0.671-23.955-6.724-27.87-12.754c2.939-12.935-9.314-13.711-14.643-19.84
	c-0.4,1.976-2.716,4.51-3.779,4.251c-2.791-0.2-0.448-5.534-1.89-7.085c-7.174-4.141-16.218-4.863-22.201-10.864
	c-3.605,2.465-5.989,8.378-7.085,11.809c3.883,2.746,6.087,7.911,11.809,9.447c3.576,0.961,7.241-0.684,9.92,1.89
	c-3.779,7.628,4.497,13.156,6.613,19.367c8.812-0.309,14.26,2.746,17.949,7.558c-0.586,3.351-1.813,6.059-3.778,8.03
	c3.859,3.222,8.447,5.89,13.698,8.503c5.558,2.765,15.562,8.244,25.508,7.558c4.882-0.337,9.505-3.852,14.171-4.251
	c15.247-1.307,26.825,11.982,25.508,28.814c-7.376,12.778-30.903,13.111-39.206-0.473c-2.611-4.272-3.128-10.968-6.141-14.644
	c-5.392-6.575-16.655-8.279-24.091-12.754c-5.118-3.079-8.017-6.685-11.81-10.392c-5.03,2.276-9.258,4.839-15.115,4.251
	c3.854,3.621,10.203,6.323,9.92,12.754c-0.243,5.504-5.665,7.738-11.337,9.447c7.239,3.065,15.138,4.874,21.256,11.337
	c3.347,3.535,7.916,10.737,5.669,16.533c-5.492,14.16-38.115,10.183-46.765,0.944c-1.516,0.084-3.043-0.522-4.251-1.89
	c-0.48-2.986,0.078-6.158-1.417-8.975c-15.247-9.316-29.938-19.188-42.041-31.648c-2.481,0.229-4.901-0.331-4.724-1.417
	c-2.938,0.159-2.715,4.999-3.779,7.558c-1.393,3.349-4.53,5.55-4.251,10.392c0.143,2.466,2.395,3.939,2.362,6.613
	c6.287,8.291,17.475,16.498,27.396,23.146c3.095,2.073,7.327,5.956,12.282,6.141c3.965,0.147,7.311-2.549,12.754-1.417
	c7.221,1.502,14.886,7.599,15.588,13.226c1.687,13.514-17.781,8.013-24.563,6.142c-5.243-3.456-4.262-10.323-8.502-14.172
	c-6.858-6.223-16.748-10.699-24.563-17.005c-6.199-5.001-10.182-11.286-16.061-15.588c-2.565,0.898-4.023,2.904-6.141,4.251
	c-6.618-0.145-10.881,5.257-17.005,7.086c-0.405,6.211-4.194,11.041-12.754,9.92c-2.896-1.829-4.822-4.625-5.669-8.503
	c2.465,1.667,5.476,0.366,7.559-0.945c1.776-0.359,0.325,2.509,2.361,1.89c1.661-0.543,2.833-1.575,2.834-3.778
	c0.772-2.063-5,0.004-2.834-1.89c-0.225-2.93,1.415,0.341,3.307-0.473c1.427-1.888-0.427-3.763-0.473-5.668
	c2.06,1.247,3.864,2.749,3.779,6.141c9.167-2.328,14.575-8.413,22.201-12.281c2.323-8.184,4.866-17.001,8.975-24.563
	c-4.749-6.431-8.116-14.242-12.281-21.257c-21.092-5.045-38.673-13.602-54.322-24.091c-15.035-8.404-32.277-28.217-53.377-29.759
	c-7.458-0.545-13.915,2.95-21.729,4.724c-0.875,2.603-0.313,9.845-0.473,14.644c16.252,7.62,30.25,20.37,46.292,30.704
	c8.476,4.251,16.942,13.41,27.396,18.422c1.729,0.312,1.812-1.022,3.307-0.944c2.462,4.406,4.788,6.062,9.447,8.03
	c5.419,7.109,5.476,18.651,1.89,27.869c-0.948,2.438-2.863,4.873-3.307,7.086c-0.483,2.416-0.053,7.299,0,11.337
	c0.082,6.212-1.425,11.292,0.473,18.422c1.077,4.046,5.995,8.143,8.03,12.754c6.172,13.988,1.237,35.051-7.086,44.402
	c-2.288,2.57-7.688,7.756-14.643,7.086c-7.146-5.293-9.505-15.374-10.393-26.925c-2.726-0.356-3.785,5.026-8.975,3.778
	c-3.449,6.328-8.472,15.05-14.644,20.784c-2.004,1.861-5.432,4.637-7.558,5.669c-13.682,6.644-20.274-6.387-21.729-17.95
	c-9.119,5.257-19.632-2.435-19.367-14.644c-11.229,5.396-25.552,2.297-26.925-9.92c-1.985,2.109-2.651,5.538-5.196,7.086
	c4.166,24.256-6.146,45.632-24.091,52.433c-0.944,0-1.889,0-2.834,0c0-0.158,0-0.315,0-0.473
	c-20.093-5.489-19.781-36.951-10.864-53.377c-5.241-8.597-1.678-25.26,3.306-33.065c6.042-9.462,18.325-13.854,24.091-20.784
	c-0.669-9.928,3.19-24.603-2.362-30.704c1.969-1.652,3.159-4.084,3.779-7.086c-0.062-2.456-3.366-1.672-3.306-4.251
	c1.014-0.923,0.518-5.668,0.944-7.558c1.883-1.042,3.38,0.137,5.668,0c6.64-5.484,11.199-13.05,11.337-25.036
	c-5.725-1.234-10.86,1.639-15.116-1.417c-1.115,0.933-2.981,1.113-4.724,1.417c-1.322,1.198-0.683,4.356-2.362,5.196
	c-1.527,0.45-2.819-0.306-4.251,0.945c-8.125,8.415-16.356,21.112-21.256,35.427c-1.917,5.601-2.929,12.519-1.89,18.895
	c0.299,1.833,1.962,4.686,1.89,7.086c-0.062,2.029-1.498,4.211-1.89,6.141c-2.105,10.372-3.063,19.006-9.447,25.98
	c-4.514,4.931-12.551,9.027-20.312,9.92c-11.083,1.274-11.815-10.898-13.699-20.784c-26.377,8.597-20.282-44.344-8.975-53.378
	c3.987-0.833,5.282-5.315,8.03-7.558c2.352-1.918,5.659-1.983,8.502-3.779c1.317-0.831,3.254-3.005,4.724-4.251
	c8.058-6.833,14.414-17.239,24.09-23.146c5.184-3.164,11.583-4.015,17.478-6.613c2.342,1.381,5.227-0.673,7.558,0.472
	c0.749-1.612,2.187-2.536,4.251-2.834c2.464,1.844,2.704,3.454,5.196,4.724c6.013,3.062,16.389-0.302,25.508,1.417
	c3.552-2.47,8.578-4.793,13.699-8.03c3.906-2.47,11.421-5.516,13.226-8.502c2.404-3.979-0.322-8.116,0.945-13.227
	c-23.084,7.781-46.911,12.925-68.493,19.84c-16.368,5.243-31.154,11.486-47.709,17.478c-8.076,2.922-17.844,5.135-23.618,8.975
	c-3.448,2.293-6.522,6.801-9.92,9.92c-6.024,5.53-14.487,14.673-26.925,9.447c-2.117-0.89-3.552-3.207-5.668-3.307
	c-3.332-0.156-10.086,5.048-13.699,7.085c-4.552,2.568-9.77,6.459-13.699,7.086c-6.527,1.042-14.051-0.474-23.146,1.89
	c-5.726,1.487-10.978,3.813-16.533,5.195c-5.344,1.33-13.523,3.621-20.312,6.142c-2.015-3.653-0.553-10.783-3.307-13.699
	c16.908-4.976,38.149-7.639,50.543-16.532c6.394-4.588,7.091-10.85-0.472-15.116c-3.538-1.995-7.909-1.944-11.337-3.307
	c-6.56,5.897-13.32,9.084-25.508,6.141c-6.864-1.657-11.557-4.728-15.588-8.975c-3.412-3.595-5.122-9.021-9.92-11.337
	c-3.604-1.74-7.344-0.61-10.864-2.361c0-1.26,0-2.52,0-3.779c9.139-6.639,19.048-0.619,29.287-0.944
	c2.609-0.083,5.455-1.368,8.03-1.418c13.767-0.269,22.423,8.255,25.98,17.478c3.123,0.971,5.947,1.191,8.503,2.362
	c4.861,2.228,7.811,7.038,13.226,8.503c4.134-9.354-2.511-20.537-2.834-28.343c9.115-1.536,10.076,9.119,13.226,15.116
	c3.752-6.62,7.654-13.127,11.337-19.84c3.662-6.674,7.306-13.508,10.864-20.312c6.065-7.918,11.263-16.515,17.95-25.508
	c2.087-2.807,5.549-5.436,5.668-8.503c0.208-5.334-7.586-12.089-11.337-14.643c-3.081-2.099-7.804-3.985-11.809-5.196
	c-5.831-1.765-10.286-2.421-13.227-7.086c-2.192-3.477-3.678-6.978-6.141-10.392c-2.381-3.299-5.014-6.881-5.668-10.864
	c8.854-3.844,19.708,1.314,27.397,2.834c0.271-20.581,8.633-38.547,23.618-47.236c3.534-0.877,6.242-3.461,9.447-5.196
	c3.037-1.645,7.25-2.383,8.975-5.668c-5.289-2.27-9.688-5.429-15.116-7.559c-6.07-6.369-12.603-12.275-18.895-18.422
	c-5.97-16.729-22.692-25.142-21.729-47.236c-5.768-6.729-12.232-12.517-14.644-22.674c-0.919-3.873-0.301-8.332-1.889-12.282
	c-1.349-3.355-4.38-6.348-6.141-9.447c-2.052-3.611-3.4-7.057-5.668-9.919c-11.763-2.907-27.677-6.181-41.568-7.559
	c-3.582-0.354-7.545,0.47-9.447-2.834c8.872-7.945,27.503-7.684,41.096-9.447c-0.545-4.25-3.411-8.151-5.668-11.809
	c-2.208-3.577-4.13-7.991-6.613-10.864c-3.7-4.283-9.207-5.912-11.809-11.337c-1.931-4.024-2.671-7.807-4.724-11.337
	c-5.486-9.436-16.716-16.385-21.256-26.453c-0.936-2.074-1.884-4.252-0.945-7.085c3.994-0.896,8.186,1.231,11.337,2.834
	c3.336,1.697,6.775,4.023,9.919,6.141c6.25,4.208,11.033,10.883,17.005,14.644c2.781,1.751,6.566,2.562,9.447,4.251
	c7.454,4.371,13.435,9.83,19.839,15.588c5.896,1.75,9.646,3.023,15.588,4.251c7.266,7.217,16.911,9.454,30.231,12.282
	c4.357,0.925,9.332,3.023,12.754,2.834c5.776-0.319,14.989-7.88,19.839-11.809c8.622-6.984,14.901-14.127,26.452-18.422
	c3.363-1.25,7.667-1.272,10.865-2.834c1.714-0.838,3.005-3.857,5.196-5.196c5.646-3.45,17.152-6.812,25.508-7.085
	c5.415-0.177,11.843,2.627,17.005,3.307c11.103,1.461,20.065,1.004,25.508,8.975c1.903,2.787,2.796,6.664,5.196,9.919
	c-0.408,1.818-1.106,7.611,1.89,7.558c3.804-1.537-1.095-7.083-1.89-9.92c-1.471-9.236-4.097-17.316-6.141-25.98
	c-15.398-24.174-13.859-62.753-9.92-95.418c0.837-6.937,0.354-13.953,1.417-19.839c1.7-9.419,6.517-17.134,7.558-25.98
	c1.143-9.715-2.284-18.097,0-25.508c17.49,17.756,11.053,59.527,21.729,83.609c1.648,3.719,4.193,6.913,6.141,10.392
	c2.004,3.58,4.585,6.529,6.613,9.92c5.712,9.546,10.429,19.808,19.367,25.98c2.006-10.441,1.231-19.671,2.361-28.814
	c0.484-3.917,2.73-7.091,3.779-10.864c2.313-8.32,3.154-17.163,5.196-25.508c11.95-48.86,33.214-88.137,53.85-129.428
	c3.005-6.014,9.575-15.345,10.392-20.312c1.171-7.117-1.89-14.68-3.778-21.729c-25.857,3.323-46.579-3.35-65.187-15.115
	c-1.713-1.083-3.078-2.738-4.724-3.779c-4.842-3.061-9.248-5.325-13.699-8.975c-0.394-1.968-2.261-2.462-2.834-4.251
	c-12.679-7.161-21.313-22.458-33.538-31.648c-6.527-4.18-15.779-5.634-21.256-10.865c14.529-2.432,25.617,3.818,36.372,9.92
	c2.739,1.554,5.426,2.579,8.03,4.251c2.348,1.508,4.083,4.037,6.613,5.668c4.104,2.647,10.145,4.747,14.643,5.668
	c8.472,1.736,18.6-0.816,29.287-1.417c14.088,1.738,23.818,11.707,35.899,17.005c4.82,4.785,9.354,9.856,8.503,20.312
	c9.801-1.806,14.118,6.66,6.613,11.809c2.464,4.622,3.671,10.5,4.251,17.005c11.408-14.855,22.764-32.035,34.482-47.709
	c3.904-5.221,9.068-10.323,11.337-15.588c2.469-5.73,6.734-21.493,4.252-29.287c-1.78-5.585-6.558-10.405-9.447-16.061
	c-2.704-5.289-6.435-11.028-7.559-17.478c-0.985-5.655,0.102-11.279-0.944-16.533c-1.455-7.306-5.667-14.439-2.834-22.201
	c3.805,1.233,4.959,5.118,7.558,7.558c2.323,8.748,6.48,16.562,10.392,24.091c4.355,8.381,13.466,15.661,17.478,25.036
	c3.273,7.648-0.452,20.695-8.975,23.618c-0.649,6.122-2.485,11.056-4.251,16.061c7.68-6.176,13.802-13.91,20.784-20.784
	c-2.295-8.345,2.356-14.428,2.834-22.201c0.229-3.744-1.879-9.231-1.89-14.644c-0.012-6.088,1.233-11.428-0.473-15.588
	c-1.178-2.874-3.935-5.394-5.195-9.92c-1.201-4.311-0.574-15.446,3.778-8.502c4.022,6.417,11.126,11.029,14.171,17.005
	c5.532,10.856-3.512,19.774-2.361,30.231c-3.927,4.696-8.124,12.114-6.613,19.367c9.962-5.942,19.305-16.595,28.814-24.563
	c2.317-5.423,5.773-10.651,8.975-15.588c2.995-4.617,5.767-11.295,12.754-11.809c-1.842,6.188-5.729,10.332-7.558,16.533
	c9.396-3.2,16.051-9.142,25.035-12.754c3.09-4.625,8.672-6.759,16.533-6.613c3.927-4.671,18.717-5.237,18.895,1.417
	c0.086,3.207-3.694,5.985-6.613,7.086c-4.648,1.752-9.851-2.021-11.337,2.362c6.367-1.306,12.902,2.023,15.589,8.03
	c-2.017,2.393-3.557,5.261-8.503,4.724c0.578,2.993,4.598,9.224,0.472,12.281c-2.74,2.031-9.914,0.126-12.281-3.307
	c-2.461-3.57-0.986-8.981-6.141-8.975c0.422,1.604-1.088,3.876-2.361,5.196c5.666,0.452,10.535,11.613,4.724,13.226
	c-4.372,1.214-8.596-3.821-10.865-6.613c-6.71,0.085-8.981-5.671-8.975-10.865c-6.077-3.011-14.39-1.013-19.367,4.724
	c-1.762,2.032-1.847,5.119-3.307,7.558c-1.444,2.415-7.955,11.054-10.864,11.809c-1.605,0.417-3.769-0.834-5.668-0.472
	c-4.05,0.77-13.296,10.469-16.061,13.226c-5.334,5.319-10.339,9.967-13.227,15.588c4.974,0.249,6.981-2.466,10.393-3.779
	c0.354-4.074,0.224-6.409,1.889-8.502c2.409-0.362,1.078,3.016,3.307,2.834c4.439-8.944,13.836-12.931,25.98-14.171
	c3.447,5.487,9.867,7.268,17.478,4.251c2.549-4.609,1.753-9.816,5.196-13.699c1.755-0.674,5.57-0.958,6.141,0.945
	c-1.675,5.355-2.401,9.513,0.944,13.699c5.123,2.274,14.103,3.094,17.95,8.03c-4.379,0.974-9.286,1.42-12.281,3.779
	c1.309,6.871,4.775,13.056,3.307,21.256c6.6-2.582,13.987-6.88,23.618-6.613c3.65,0.101,7.294,1.703,10.864,1.417
	c4.779-0.383,11.575-6.323,13.698,0.472c-0.112,2.25-3.074,1.649-4.251,2.834c-1.604,2.755-4.45,4.962-6.613,7.558
	c-2.039,2.447-4.902,4.753-5.195,7.558c8.905,0.531,20.933-0.956,29.759,0.944c-1.362,4.146,2.296,2.923,3.778,6.141
	c-1.781,2.826-2.5,2.694-0.944,6.141c-12.963,7.86-30.596,15.791-49.599,13.226c2.643,7.174,1.05,17.857,5.669,24.563
	c14.092,1.099,21.978,10.67,24.562,21.729c-6.693,4.163-15.647,3.769-22.201,0.945c-11.897-5.127-14.956-23.238-28.814-25.508
	c-0.294,2.341,1.592,2.502,0.945,5.196c-4.39,0.334-5.892,3.556-7.559,6.613c8.327,8.363,16.557,16.825,22.201,27.87
	c4.798,0.398,5.712,4.681,8.503,7.085c0.36,1.776-2.509,0.326-1.89,2.362c2.777,0.845,5.373,1.87,8.03,2.834
	c5.081-3.835,10.596-7.57,14.644-13.227c3.466-4.843,5.979-10.953,9.92-16.061c2.851-3.694,9.314-8.048,10.864,0
	c-0.976,2.867-4.25-0.774-5.668,1.417c-0.37,12.069-3.695,21.183-8.03,29.287c4.795-0.921,5.803,1.778,9.919,0.945
	c4.502-0.911,5.157-5.931,8.503-6.141c2.195-0.137,4.812,1.078,4.724,5.196c-1.719,1.037-3.17-0.426-4.724,0.945
	c-5.689,8.752-10.977,20.044-23.618,20.312c0.658,3.239,3.29,5.254,4.724,8.975c0.741,1.924,0.427,4.765,1.417,6.613
	c1.655,3.089,11.402,5.258,5.196,9.447c-3.274-4.185-8.96-9.892-16.533-11.337c1.105,2.661-1.582,5.093-1.417,7.558
	c0.157,2.341,2.924,2.841,1.89,5.196c-4.559,2.752-7.03-2.538-10.393-4.724c-4.244-2.76-10.484-3.258-11.337-9.447
	c-9.179,8.141-21.629,13.011-37.316,14.643c-1.42,0.942-1.116,3.608-3.779,3.307c0.437-1.802-2.094-3.142-1.417-6.141
	c0.821-3.636,6.231-3.558,9.447-5.196c4.182-2.13,9.382-8.56,12.754-13.227c1.434-1.984,3.129-3.719,3.307-4.724
	c0.55-3.11-3.522-5.243-4.251-8.03c0.05-3.041-1.43-4.553-1.89-7.085c-8.729,1.324-18.038,1.448-25.035-2.834
	c1.486,12.856-6.19,20.528-6.613,32.593c2.242,1.517,3.749-1.936,6.141,0c4.369,12.316-13.171,6.621-13.698-0.945
	c-7.758-2.591-7.888-7.617-10.393-15.588c-0.515-1.02-2.318,0.765-2.834-0.944c1.506-4.82,2.027-8.219,0-13.227
	c-7.598,5.625-24.787,7.698-37.789,4.724c-2.207-0.504-4.177-2.55-6.141-2.362c-2.875,0.275-3.912,4.4-6.142,3.307
	c-1.045-1.535-0.759-6.075,0.473-8.03c18.135-0.917,21.26-16.845,38.734-18.422c-2.503-3.48-6.908-5.059-10.393-7.558
	c-1.097-2.538-3.527-4-5.195-7.085c-4.144-7.664-3.537-19.788-7.559-25.98c-10.66,0.585-20.807,0.837-31.648,2.362
	c-5.794,0.815-13.134,1.437-16.061,3.779c-3.913,3.131-8.45,14.025-11.809,20.312c-4.086,7.646-7.113,13.727-10.864,21.256
	c-7.11,14.27-16.662,29.564-21.257,42.985c-4.767,13.923-9.981,28.558-15.588,44.403c-1.541,4.353-4.576,10.865-4.252,13.698
	c0.485,4.222,6.3,7.129,7.559,11.337c7.529-7.132,17.607-11.412,29.759-15.116c4.382-1.336,9.408-3.262,13.698-3.779
	c5.504-0.664,12.014,1.101,16.061-2.834c-2.199-2.738-5.543-6.611-3.778-10.865c1.706-4.115,7.295-2.908,12.754-4.251
	c3.945-0.971,4.68-2.605,8.975-2.834c2.84-0.151,6.298,0.078,8.503,0.473c7.317,1.31,11.651,6.487,17.005,8.03
	c2.063,0.595,3.996-0.178,6.141,0c24.097,2.007,50.055,12.358,64.714,25.036c12.505-2.836,20.229,6.195,33.066,6.141
	c2.899-0.012,6.781-0.386,9.919-0.945c8.955-1.594,17.963-3.348,26.926-3.306c7.036,0.033,15.199,0.284,19.366,6.141
	c-14.468,4.294-29.214,13.852-46.764,15.588c-23.946,2.369-38.568,23.427-61.88,14.644c-21.497,5.708-40.016-7.378-55.268-17.478
	c-13.162-8.716-24.932-18.297-36.372-24.563c-11.829-4.41-24.929-2.919-38.262,2.834c-4.483,1.935-20.673,8.36-21.729,14.171
	c-0.406,2.235,1.922,6.924,2.834,10.392c1.891,7.188,2.48,13.05,6.613,17.478c6.276-1.441,13.504-5.526,23.618-4.251
	c21.877,2.758,40.845,17.956,54.322,27.87c27.338,8.247,41.771,29.399,54.795,51.96c11.242,4.888,17.501,17.134,26.452,24.563
	c6.709,5.569,16.632,9.102,18.422,19.367c-8.183-1.769-14.903-5.26-22.673-8.03c-7.387-2.633-13.063-8.373-20.312-10.392
	c-4.626-1.289-9.902-0.591-15.588-1.417c-5.036-0.731-10.226-3.434-15.115-3.779c-6.472-0.457-12.463-0.047-18.896-0.945
	c-6.489-0.906-12.632-3.057-19.839-3.779c-16.266-11.195-39.731-13.436-55.267-25.036c-4.074-3.042-9.985-9.86-12.754-15.588
	c-0.951-1.967-0.965-4.312-1.89-6.613c-3.21-7.983-8.576-15.211-7.086-25.035c0.582-3.834,4.718-9.771,4.724-14.171
	c0.005-3.66-3.078-8.973-4.251-13.698c-1.223-4.924-1.861-9.377-3.779-12.754c-10.258,12.108-16.861,30.365-17.005,51.016
	c14.261,9.657,27.497,24.907,28.342,44.875c0.182,4.282-1.064,7.94-1.89,11.337c-0.945,3.898-0.915,9.343-2.361,14.171
	c-1.362,4.546-4.239,9.476-4.251,12.282c-0.024,5.491,5.742,12.308,8.502,17.95c8.895,18.179,19.006,34.625,21.729,56.211
	c8.379,2.077,15.521,13.114,25.035,8.03c2.976,0.412,3.862,4.622,6.613,3.779c3.979-4.754,3.798-8.277,4.724-15.588
	c1.424-11.248,9.751-22.438,17.478-28.343c5.61-4.287,12.696-6.679,21.256-7.558c5.119-0.525,10.54,1.409,17.006,0.945
	c8.623-0.62,17.601-6.972,28.342-7.086c3.274-0.035,6.459,0.748,9.447,0.473c8.097-0.747,12.624-4.081,21.257-3.307
	c3.391,0.305,7.343,1.544,10.864,2.834c3.096,1.134,6.467,3.639,9.92,3.779c2.521,0.103,5.067-1.416,7.558-1.417
	c6.773-0.006,13.238,4.533,19.839,6.612c6.044,1.904,12.677,1.321,18.423,2.362c6.062,1.099,12.824,4.213,17.478,7.085
	c2.621,1.618,4.374,4.874,7.085,6.142c3.345,1.562,7.505,0.796,10.393,2.361c3.936,2.135,4.211,6.349,8.503,8.03
	C1004.891,1100.147,1004.891,1103.769,1004.891,1107.39z M907.11,588.259c3.33-0.134,6.146-0.783,7.085-3.307
	C911.796,584.729,907.699,585.277,907.11,588.259z M921.754,596.29c1.986,0.52,3.327,2.303,5.195,0.472
	C927.081,592.877,922.551,593.858,921.754,596.29z M860.346,684.622c0.26,0.23,0.396-0.617,0-0.945
	c-4.894-4.062-8.691-3.857-14.171-6.141c-0.549-0.229-0.489-1.278-1.417-1.889c-0.96-0.632-5.68-0.916-5.196-4.251
	c4.05-3.605,10.562-2.596,17.006-3.307c9.071-1,20.288-6.161,29.286-0.472c-2.664-6.312-0.012-14.288,1.89-18.422
	c-9.725-1.719-17.789-2.168-25.98-0.945c-11.475,1.714-21.149,9.968-34.482,8.503c-20.511,19.168-37.349,42.009-51.96,67.076
	c14.62-2.132,28.842-2.209,43.457-3.779c9.886,2.71,22.532,2.661,33.538,4.251c1.226-3.026,3.337-5.166,5.669-7.085
	c6.865-1.198,9.68-7.224,10.864-12.754c5.729-1.514,7.129-7.357,10.392-11.337C871.537,694.333,863.905,687.788,860.346,684.622z
	 M919.864,724.301c-0.549-0.396-1.267-0.624-2.362-0.473c1.397-1.746-1.617-1.111-2.361-1.417c-3.845-1.576-6.524-6.303-8.975-7.558
	c-2.312-2.482-1.191-5.651-5.196-6.613c-0.421,4.411-4.689,8.772-8.03,11.809c0.57,0.1,0.29,0.524,0,0.945
	c9.182,1.805,19.566,2.835,28.342,6.141C922.091,724.271,917.135,725.109,919.864,724.301z M864.125,723.356
	c4.441,0.144,9.015-3.547,11.809-6.613c0.033-3.906-0.597-3.744,0-7.085C868.145,710.371,869.204,719.932,864.125,723.356z
	 M889.633,729.497c-0.092,2.61,1.541,3.498,3.307,4.251c3.645-2.247,7.234-4.646,9.92-6.613c-2.688-1.091-7.2-0.358-8.976-2.362
	C893.361,727.242,892.428,729.301,889.633,729.497z M857.984,731.858c0.121,6.02,3.085,9.196,4.724,13.699
	c3.918-2.223,7.412-4.87,12.754-5.668c2.296-4.031,0.235-7.473,1.417-12.754C869.778,726.047,864.281,730.576,857.984,731.858z
	 M853.261,744.612c0.58-4.609-0.764-8.377-0.473-14.643c-7.226-1.48-16.856-2.92-24.563-2.362
	C833.057,736.273,844.306,737.611,853.261,744.612z M882.075,738c1.418,0.57,4.777-0.417,5.195-2.362
	c-1.35-0.697-1.955-2.138-3.778-2.362C884.863,735.555,882.048,735.72,882.075,738z M897.19,744.14
	c-4.342,4.947-4.245,14.333-7.085,20.784c8.105,2.108,16.485,11.039,26.452,6.613C912.872,761.523,905.197,751.406,897.19,744.14z
	 M915.141,785.236c1.005-0.113,4.262,2.154,5.668,1.89c0-2.519,0-5.039,0-7.558c-1.182,0.603-1.479-0.24-1.889,0.473
	C919.396,781.836,914.352,782.14,915.141,785.236z M700.214,901.438c2.634-3.349,5.048-6.917,8.975-8.975
	c-1.612-3.741-2.838-7.869-6.141-9.919C702.366,887.064,699.438,895.504,700.214,901.438z M737.059,1151.792
	c-4.051-2.581-0.171-9.661,0-13.698c0.156-3.72-0.594-9.188-0.945-13.227c-1.296-14.906-2.39-31.884-9.447-41.568
	c-0.047-0.064,0.668-0.112,0-0.472c-8.855-4.771-16.543-15.599-24.562-23.146c-0.289-0.026-0.56-0.07-0.473-0.472
	c-5.752,1.041-10.253,7.226-12.754,8.502c-7.428,4.626-24.398,3.492-33.538,1.417c0.011-5.01,7.483-5.714,12.754-6.613
	c4.37-0.744,8.335,0.096,11.337-0.472c7.432-1.404,12.976-5.229,18.422-6.141c-3.107-15.263-19.24,0.75-29.286-2.362
	c-13.8-4.465-19.553-16.977-23.146-31.648c-6.158-1.144-7.598,7.4-9.92,11.337c-4.249,7.204-11.084,12.403-17.478,17.478
	c-7.566,6.005-15.104,10.141-25.036,14.171c2.673,4.098,7.47,6.071,10.865,9.447c0.389,3.232,3.292,3.95,4.724,6.141
	c-0.521,2.41,1.787,1.992,1.889,3.779c7.31-4.514,15.677,4.244,19.367,8.975c10.723,13.748,14.395,36.851,14.644,59.046
	c0.621-2.077,3.19-3.997,3.779-6.141c0.137-0.498-0.955-1.422-0.945-1.89c0.035-1.513,2.841-7.37,4.724-9.92
	c10.938-14.811,14.809,7.641,14.644,17.478c9.795,0.459,20.304,0.462,29.287-2.834c-2.498-7.895-6.029-14.755-8.03-23.146
	c2.753-0.683,3.795-1.771,6.141-0.945c2.72,6.885,4.094,15.115,8.502,20.312c8.452-3.928,14.658-11.206,23.146-13.699
	c-1.237,13.066-7.92,23.569-16.533,30.704c1.031,3.22,3.428,5.075,4.252,8.503c1.926-0.969,2.571,1.941,1.889,8.029
	c5.29-1.076,2.982-1.107,5.669,2.362c3.24,4.947,6.194,10.181,10.864,13.698C734.831,1178.123,735.354,1167.189,737.059,1151.792z
	 M700.687,1045.51c3.725,10.131,10.956,16.755,18.895,22.674c-4.955-8.9-8.087-19.626-15.116-26.453
	C703.442,1043.228,702.722,1045.026,700.687,1045.51z M744.616,1125.34c4.904-0.606,11.539,0.518,13.698-2.834
	c-6.176-2.116-9.837-3.942-15.115-6.613C743.982,1118.73,743.855,1122.479,744.616,1125.34z M674.706,1191.943
	c-2.959,5.016-7.603,12.163-12.754,16.533c0.25,2.084,2.305,3.899,3.779,5.195c4.966,4.367,9.588,8.343,14.171,12.754
	c2.083,3.9,5.121,6.847,8.502,9.448c3.312-11.678,9.907-21.411,12.754-32.121c3.406-5.412,6.646-10.989,6.141-20.312
	c0.932-0.801,1.084-2.381,3.307-1.89c-1.596-5.938-2.923-8.415-6.141-13.699C694.879,1176.216,684.57,1183.858,674.706,1191.943z
	 M720.053,1193.36c-2.587-0.209-7.438,4.689-8.975,6.613c-1.857,2.328-3.379,6.753-5.196,10.864
	c-4.234,9.583-10.086,24.366-13.226,32.594c8.405,8.508,14.382,20.903,18.895,30.704c1.204,1.382,3.167-0.451,4.251,0.472
	c5.44-18.299,9.942-48.001,14.171-71.8C726.007,1200.772,724.451,1193.716,720.053,1193.36z M635.972,1238.235
	c-4.269,3.318-10.011,9.814-14.643,16.533c-4.596,6.666-8.066,14.133-14.171,18.895c-4.286,3.343-10.474,7.405-16.061,8.975
	c-4.242,1.191-9.456,1.002-14.171,1.89c-4.8,0.903-9.696,1.252-14.171,2.361c-2.372,0.589-4.349,1.917-6.613,2.362
	c-8.268,1.627-15.869,2.089-24.091,6.613c-3.181,1.751-6.833,3.818-10.392,5.196c-4.083,1.58-8.78,1.876-11.809,4.251
	c-4.373,3.43-7.762,9.66-11.337,14.644c-11.323,15.778-21.032,32.083-28.814,50.543c3.887,1.17,4.365-2.375,6.613-1.417
	c0.002,5.04-2.86,7.218-4.724,10.392c4.514-0.819,5.523-1.168,10.864-0.472c4.637-9.068,14.221-15.15,30.231-14.171
	c5.343-12.768,9.187-27.202,21.257-34.011c1.77-0.999,4.48-2.372,7.085-1.417c-1.943,13.015-2.657,27.259-8.03,36.845
	c38.419-15.589,88.166-25.765,126.122-39.207c4.656-32.354,16.281-55.325,25.98-82.191c-8.265-11.102-17.619-21.114-28.814-29.287
	C655.445,1227.971,643.809,1232.144,635.972,1238.235z M695.49,1310.035c0.664-0.832,2.493-4.202,4.251-7.086
	c2.663-4.369,4.964-9.182,6.141-12.754c1.25-3.789-0.777-5.295-1.89-8.502c-3.563-10.284-6.189-24.115-14.643-31.177
	c-1.076,5.381-4.432,8.48-5.196,14.171c-8.43,18.181-13.983,39.237-19.367,60.463
	C675.949,1323.576,689.278,1317.811,695.49,1310.035z M506.543,1295.392c2.877-1.216,5.244-2.943,6.613-5.668
	c-2.545-5.329-7.138-8.607-14.171-9.447C499.787,1286.42,502.179,1291.146,506.543,1295.392z M867.904,1334.126
	c3.556,1.937,9.661,2.282,14.643,1.417c7.967,7.967,18.57,0.091,27.87-2.834c-1.063-4.67-5.43-9.245-2.834-14.644
	C891.138,1313.149,874.733,1321.458,867.904,1334.126z M847.12,1340.267c-3.109,1.995-5.059,6.912-3.779,11.81
	c3.936-0.532,5.233-0.975,9.447-1.418c1.628-4.188,4.733-7.261,6.613-12.281c-2.14-1.324-3.661-3.267-7.086-3.307
	C853.3,1339.826,849.45,1340.11,847.12,1340.267z M887.743,1346.88c0.616-4.867-4.387-4.116-8.503-4.251
	c-2.128-0.549-2.64-2.714-5.668-2.362C876.462,1344.305,882.624,1345.071,887.743,1346.88z M874.517,1368.608
	c-3.587-1.673-6.339-3.328-9.447-5.668c-2.781-2.095-6.079-6.138-8.975-6.613c-3.606-0.592-10.406,1.488-14.171,2.361
	c-15.356,3.564-27.875,15.499-37.789,23.619c1.622,4.208-1.589,5.384-2.362,8.502c2.165,3.819,3.09,8.878,7.086,10.864
	c3.341-2.642,6.739-5.226,8.502-9.447c0.125-3.712-2.115-8.051-0.944-9.919c0.812-0.921,2.445-1.019,4.251-0.945
	c3.158-5.835,13.563-6.823,21.257-9.447c2.97-1.013,6.173-4.614,8.975-4.724c1.967-0.076,9.17,2.361,11.337,3.307
	c6.683,2.916,12.38,9.929,11.81,17.95c2.441-1.338,6.062-1.497,7.085-4.252C878.636,1379.291,875.943,1374.583,874.517,1368.608z
	 M687.46,1379.001c-6.074-7.851-16.8-11.714-24.563-17.95c-15.449-2.06-22.146,11.095-32.121,17.478
	c-0.191,2.921-1.496,6.304-0.945,8.503c1.182,0.865,3.536,0.559,3.307,2.834c0.16,2.679-2.583,2.455-2.834,4.724
	c8.198,27.118-13.385,52.181-3.779,77.94c8.038-16.125,23.72-22.854,37.317-32.594c1.416-2.992,3.059-5.759,6.141-7.085
	c9.81-15.232,16.28-26.68,27.397-39.206c-1.404-2.809,0.295-5.361,0.944-7.559c-1.381-0.352-0.914-2.55-2.834-2.361
	c-0.829,0.903-1.769,1.695-3.307,1.89C689.6,1384.035,689.166,1381.206,687.46,1379.001z M579.288,1400.729
	c0.906-1.344,3.197-4.895,4.724-7.085c4.815-6.909,17.298-16.115,6.613-23.146c-14.806,3.71-33.479,10.887-34.955,26.452
	c-0.877,9.257,5.932,12.844,6.141,22.674c-0.55,0.079-0.513,0.747-0.473,1.417c-0.889,1.19-2.455-0.991-2.834,0.945
	c1.695,0.987-1.035,4.253,0.945,4.251C567.86,1420.953,572.861,1410.268,579.288,1400.729z M842.396,1385.142
	c-0.871-1.674-0.557-3.47-1.89-4.724c-6.208-5.838-18.343,1.815-16.533,12.281c4.788,3.752,20.175,1.994,25.98,0
	C847.329,1390.537,844.277,1388.76,842.396,1385.142z M462.141,1395.533c6.527-2.919,14.059-4.836,17.478-10.864
	C470.801,1381.684,465.247,1389.702,462.141,1395.533z M705.882,1394.589c-1.421,0.468-2.107,1.671-4.251,1.417
	c-12.742,17.537-28.773,36.663-28.814,63.77c1.876-0.958,4.148-1.521,4.724-3.779c1.908-0.629,6.684-2.651,8.03-3.778
	c5.023-4.204,8.15-12.76,11.81-19.367c1.865-3.37,4.471-7.053,6.612-10.393c2.545-3.967,7.289-7.89,8.503-10.864
	c2.097-5.137-0.609-9.811-3.307-13.226c0.027-1.706,1.178-2.287,1.417-3.779c-1.126-1.393-2.068-2.971-4.251-3.307
	C706.733,1392.921,705.651,1393.098,705.882,1394.589z M615.188,1406.87c0.599,2.782-0.2,5.517,0.944,8.03
	c0.812,1.782,2.317,1.707,2.362,3.779c0.05,2.305-2.984,3.924-3.779,6.613c-1.867,6.32,0.925,15.04-0.945,24.09
	c12.264-9.315,14.541-30.29,12.282-52.433c-0.104-0.368-0.396-0.549-0.945-0.472C622.716,1400.857,618.723,1403.635,615.188,1406.87
	z M837.673,1399.312c10.649,11.818,25.562,4.499,40.623,6.141C868.566,1396.277,853.802,1397.491,837.673,1399.312z
	 M866.959,1425.293c-11.562-10.796-27.144-17.574-40.623-26.453c-0.474,0.63-0.779,1.426-1.417,1.89
	c-2.876,0.356-4.284-0.755-7.086-0.473c-1.327,1.034-2.839,1.885-2.834,4.252c2.796,0.856,4.577,2.949,3.307,6.612
	c11.962,10.554,21.964,23.068,43.93,23.619c2.974-3.01,7.45-4.518,8.975-8.976C870.427,1424.975,868.438,1425.389,866.959,1425.293z
	 M718.164,1412.066c-0.976,3.195-0.591,7.034-0.945,11.809c-0.792,10.655-3.177,24.087-3.778,33.066
	c-0.429,6.389-0.221,10.649,2.834,12.754c8.387-4.049,17.684-9.684,22.674-19.84c1.11-2.261,0.543-5.819,3.306-7.558
	c-1.058-6.178-1.944-19.988-5.195-28.814c-1.048-0.909-1.919,1.223-4.252,0.473c-1.994-5.249-5.773-8.712-10.864-10.864
	C722.27,1407.156,719.176,1408.753,718.164,1412.066z M746.506,1433.795c3.135-6.166,3.09-21.616-4.252-23.146
	C743.117,1419.259,746.177,1427.317,746.506,1433.795z M695.49,1464.026c4.5,0.249,5.899-2.603,8.975-3.778
	c2.358-7.701,5.749-18.012,6.613-28.342c0.197-2.362,0.526-8.666-0.944-8.976C702.604,1434.525,697.625,1448.162,695.49,1464.026z
	 M736.113,1480.087c5.795-5.69,5.777-16.023,6.141-24.562c-0.104-0.368-0.396-0.55-0.944-0.473
	C737.746,1461.972,733.821,1469.935,736.113,1480.087z"/>
</svg>
